<?xml version="1.0" encoding="utf-8" standalone="no"?>
<!DOCTYPE svg PUBLIC "-//W3C//DTD SVG 1.1//EN"
  "http://www.w3.org/Graphics/SVG/1.1/DTD/svg11.dtd">
<!-- Created with matplotlib (http://matplotlib.org/) -->
<svg height="402pt" version="1.1" viewBox="0 0 535 402" width="535pt" xmlns="http://www.w3.org/2000/svg" xmlns:xlink="http://www.w3.org/1999/xlink">
 <defs>
  <style type="text/css">
*{stroke-linecap:butt;stroke-linejoin:round;}
  </style>
 </defs>
 <g id="figure_1">
  <g id="patch_1">
   <path d="
M0 402.724
L535.303 402.724
L535.303 0
L0 0
z
" style="fill:none;"/>
  </g>
  <g id="axes_1">
   <g id="patch_2">
    <path d="
M57.8075 362.207
L417.808 362.207
L417.808 16.6069
L57.8075 16.6069
z
" style="fill:none;"/>
   </g>
   <g id="line2d_1">
    <path clip-path="url(#p3adb02ad01)" d="
M57.8075 85.7269
L236.007 85.7269
L237.808 362.207
L239.608 85.7269
L417.808 85.7269
L417.808 85.7269" style="fill:none;stroke:#0000ff;stroke-linecap:square;"/>
   </g>
   <g id="line2d_2">
    <path clip-path="url(#p3adb02ad01)" d="
M57.8075 16.6069
L237.808 362.207
L417.808 189.407
L417.808 189.407" style="fill:none;stroke:#008000;stroke-linecap:square;"/>
   </g>
   <g id="line2d_3">
    <path clip-path="url(#p3adb02ad01)" d="
M57.8075 38.9277
L75.8075 57.2259
L92.0075 73.3594
L106.408 87.387
L119.008 99.3804
L131.608 111.073
L142.407 120.821
L153.208 130.284
L164.007 139.426
L173.007 146.767
L182.008 153.831
L191.007 160.585
L198.208 165.746
L205.408 170.672
L212.608 175.343
L219.808 179.741
L227.008 183.846
L234.208 187.636
L239.608 190.26
L245.008 192.687
L250.408 194.907
L255.808 196.914
L261.208 198.698
L266.608 200.254
L272.007 201.573
L277.408 202.65
L282.808 203.48
L288.207 204.059
L293.608 204.386
L299.007 204.456
L304.408 204.272
L309.808 203.833
L315.207 203.142
L320.608 202.201
L326.007 201.016
L331.408 199.591
L336.808 197.933
L342.208 196.049
L347.608 193.946
L353.008 191.633
L358.407 189.118
L363.808 186.409
L371.007 182.511
L378.207 178.307
L385.408 173.815
L392.608 169.057
L399.808 164.051
L407.007 158.816
L416.007 151.976
L417.808 150.571
L417.808 150.571" style="fill:none;stroke:#ff0000;stroke-linecap:square;"/>
   </g>
   <g id="mpl_toolkits.axisartist.axis_artist_1">
    <defs>
     <path d="
M0 0
L-4 -4.89859e-16" id="m2d49bb8ccc" style="stroke:#000000;stroke-width:0.5;"/>
    </defs>
    <g>
     <use style="fill:none;stroke:#000000;stroke-width:0.5;" x="417.8075" xlink:href="#m2d49bb8ccc" y="362.206875"/>
     <use style="fill:none;stroke:#000000;stroke-width:0.5;" x="417.8075" xlink:href="#m2d49bb8ccc" y="362.206875"/>
    </g>
    <g>
     <use style="fill:none;stroke:#000000;stroke-width:0.5;" x="417.8075" xlink:href="#m2d49bb8ccc" y="275.806875"/>
     <use style="fill:none;stroke:#000000;stroke-width:0.5;" x="417.8075" xlink:href="#m2d49bb8ccc" y="275.806875"/>
    </g>
    <g>
     <use style="fill:none;stroke:#000000;stroke-width:0.5;" x="417.8075" xlink:href="#m2d49bb8ccc" y="189.406875"/>
     <use style="fill:none;stroke:#000000;stroke-width:0.5;" x="417.8075" xlink:href="#m2d49bb8ccc" y="189.406875"/>
    </g>
    <g>
     <use style="fill:none;stroke:#000000;stroke-width:0.5;" x="417.8075" xlink:href="#m2d49bb8ccc" y="103.006875"/>
     <use style="fill:none;stroke:#000000;stroke-width:0.5;" x="417.8075" xlink:href="#m2d49bb8ccc" y="103.006875"/>
    </g>
    <g>
     <use style="fill:none;stroke:#000000;stroke-width:0.5;" x="417.8075" xlink:href="#m2d49bb8ccc" y="16.606875"/>
     <use style="fill:none;stroke:#000000;stroke-width:0.5;" x="417.8075" xlink:href="#m2d49bb8ccc" y="16.606875"/>
    </g>
    <g id="text_1">
     <!-- 1.0 -->
     <defs>
      <path d="
M12.4062 8.29688
L28.5156 8.29688
L28.5156 63.9219
L10.9844 60.4062
L10.9844 69.3906
L28.4219 72.9062
L38.2812 72.9062
L38.2812 8.29688
L54.3906 8.29688
L54.3906 0
L12.4062 0
z
" id="DejaVuSans-31"/>
      <path d="
M31.7812 66.4062
Q24.1719 66.4062 20.3281 58.9062
Q16.5 51.4219 16.5 36.375
Q16.5 21.3906 20.3281 13.8906
Q24.1719 6.39062 31.7812 6.39062
Q39.4531 6.39062 43.2812 13.8906
Q47.125 21.3906 47.125 36.375
Q47.125 51.4219 43.2812 58.9062
Q39.4531 66.4062 31.7812 66.4062
M31.7812 74.2188
Q44.0469 74.2188 50.5156 64.5156
Q56.9844 54.8281 56.9844 36.375
Q56.9844 17.9688 50.5156 8.26562
Q44.0469 -1.42188 31.7812 -1.42188
Q19.5312 -1.42188 13.0625 8.26562
Q6.59375 17.9688 6.59375 36.375
Q6.59375 54.8281 13.0625 64.5156
Q19.5312 74.2188 31.7812 74.2188" id="DejaVuSans-30"/>
      <path d="
M10.6875 12.4062
L21 12.4062
L21 0
L10.6875 0
z
" id="DejaVuSans-2e"/>
     </defs>
     <g transform="translate(421.8075 365.518125)scale(0.12 -0.12)">
      <use xlink:href="#DejaVuSans-31"/>
      <use x="63.623046875" xlink:href="#DejaVuSans-2e"/>
      <use x="95.41015625" xlink:href="#DejaVuSans-30"/>
     </g>
    </g>
    <g id="text_2">
     <!-- 1.5 -->
     <defs>
      <path d="
M10.7969 72.9062
L49.5156 72.9062
L49.5156 64.5938
L19.8281 64.5938
L19.8281 46.7344
Q21.9688 47.4688 24.1094 47.8281
Q26.2656 48.1875 28.4219 48.1875
Q40.625 48.1875 47.75 41.5
Q54.8906 34.8125 54.8906 23.3906
Q54.8906 11.625 47.5625 5.09375
Q40.2344 -1.42188 26.9062 -1.42188
Q22.3125 -1.42188 17.5469 -0.640625
Q12.7969 0.140625 7.71875 1.70312
L7.71875 11.625
Q12.1094 9.23438 16.7969 8.0625
Q21.4844 6.89062 26.7031 6.89062
Q35.1562 6.89062 40.0781 11.3281
Q45.0156 15.7656 45.0156 23.3906
Q45.0156 31 40.0781 35.4375
Q35.1562 39.8906 26.7031 39.8906
Q22.75 39.8906 18.8125 39.0156
Q14.8906 38.1406 10.7969 36.2812
z
" id="DejaVuSans-35"/>
     </defs>
     <g transform="translate(421.8075 279.118125)scale(0.12 -0.12)">
      <use xlink:href="#DejaVuSans-31"/>
      <use x="63.623046875" xlink:href="#DejaVuSans-2e"/>
      <use x="95.41015625" xlink:href="#DejaVuSans-35"/>
     </g>
    </g>
    <g id="text_3">
     <!-- 2.0 -->
     <defs>
      <path d="
M19.1875 8.29688
L53.6094 8.29688
L53.6094 0
L7.32812 0
L7.32812 8.29688
Q12.9375 14.1094 22.625 23.8906
Q32.3281 33.6875 34.8125 36.5312
Q39.5469 41.8438 41.4219 45.5312
Q43.3125 49.2188 43.3125 52.7812
Q43.3125 58.5938 39.2344 62.25
Q35.1562 65.9219 28.6094 65.9219
Q23.9688 65.9219 18.8125 64.3125
Q13.6719 62.7031 7.8125 59.4219
L7.8125 69.3906
Q13.7656 71.7812 18.9375 73
Q24.125 74.2188 28.4219 74.2188
Q39.75 74.2188 46.4844 68.5469
Q53.2188 62.8906 53.2188 53.4219
Q53.2188 48.9219 51.5312 44.8906
Q49.8594 40.875 45.4062 35.4062
Q44.1875 33.9844 37.6406 27.2188
Q31.1094 20.4531 19.1875 8.29688" id="DejaVuSans-32"/>
     </defs>
     <g transform="translate(421.8075 192.718125)scale(0.12 -0.12)">
      <use xlink:href="#DejaVuSans-32"/>
      <use x="63.623046875" xlink:href="#DejaVuSans-2e"/>
      <use x="95.41015625" xlink:href="#DejaVuSans-30"/>
     </g>
    </g>
    <g id="text_4">
     <!-- 2.5 -->
     <g transform="translate(421.8075 106.318125)scale(0.12 -0.12)">
      <use xlink:href="#DejaVuSans-32"/>
      <use x="63.623046875" xlink:href="#DejaVuSans-2e"/>
      <use x="95.41015625" xlink:href="#DejaVuSans-35"/>
     </g>
    </g>
    <g id="text_5">
     <!-- 3.0 -->
     <defs>
      <path d="
M40.5781 39.3125
Q47.6562 37.7969 51.625 33
Q55.6094 28.2188 55.6094 21.1875
Q55.6094 10.4062 48.1875 4.48438
Q40.7656 -1.42188 27.0938 -1.42188
Q22.5156 -1.42188 17.6562 -0.515625
Q12.7969 0.390625 7.625 2.20312
L7.625 11.7188
Q11.7188 9.32812 16.5938 8.10938
Q21.4844 6.89062 26.8125 6.89062
Q36.0781 6.89062 40.9375 10.5469
Q45.7969 14.2031 45.7969 21.1875
Q45.7969 27.6406 41.2812 31.2656
Q36.7656 34.9062 28.7188 34.9062
L20.2188 34.9062
L20.2188 43.0156
L29.1094 43.0156
Q36.375 43.0156 40.2344 45.9219
Q44.0938 48.8281 44.0938 54.2969
Q44.0938 59.9062 40.1094 62.9062
Q36.1406 65.9219 28.7188 65.9219
Q24.6562 65.9219 20.0156 65.0312
Q15.375 64.1562 9.8125 62.3125
L9.8125 71.0938
Q15.4375 72.6562 20.3438 73.4375
Q25.25 74.2188 29.5938 74.2188
Q40.8281 74.2188 47.3594 69.1094
Q53.9062 64.0156 53.9062 55.3281
Q53.9062 49.2656 50.4375 45.0938
Q46.9688 40.9219 40.5781 39.3125" id="DejaVuSans-33"/>
     </defs>
     <g transform="translate(421.8075 19.918125)scale(0.12 -0.12)">
      <use xlink:href="#DejaVuSans-33"/>
      <use x="63.623046875" xlink:href="#DejaVuSans-2e"/>
      <use x="95.41015625" xlink:href="#DejaVuSans-30"/>
     </g>
    </g>
    <g id="text_6">
     <!-- $\||x\||_1$ -->
     <defs>
      <path d="
M11.9219 -23.1875
L11.9219 73.1875
Q11.9219 73.9688 12.5 74.4844
Q13.0938 75 13.9219 75
Q14.6562 75 15.2812 74.4844
Q15.9219 73.9688 15.9219 73.1875
L15.9219 -23.1875
Q15.9219 -23.9688 15.2812 -24.4844
Q14.6562 -25 13.9219 -25
Q13.0938 -25 12.5 -24.4844
Q11.9219 -23.9688 11.9219 -23.1875" id="Cmsy10-6a"/>
      <path d="
M7.8125 2.875
Q9.57812 1.51562 12.7969 1.51562
Q15.9219 1.51562 18.3125 4.51562
Q20.7031 7.51562 21.5781 11.0781
L26.125 28.8125
Q27.2031 33.6406 27.2031 35.4062
Q27.2031 37.8906 25.8125 39.75
Q24.4219 41.6094 21.9219 41.6094
Q18.75 41.6094 15.9688 39.625
Q13.1875 37.6406 11.2812 34.5938
Q9.375 31.5469 8.59375 28.4219
Q8.40625 27.7812 7.8125 27.7812
L6.59375 27.7812
Q5.8125 27.7812 5.8125 28.7188
L5.8125 29
Q6.78125 32.7188 9.125 36.25
Q11.4688 39.7969 14.8594 41.9844
Q18.2656 44.1875 22.125 44.1875
Q25.7812 44.1875 28.7344 42.2344
Q31.6875 40.2812 32.9062 36.9219
Q34.625 39.9844 37.2812 42.0781
Q39.9375 44.1875 43.1094 44.1875
Q45.2656 44.1875 47.5 43.4219
Q49.75 42.6719 51.1719 41.1094
Q52.5938 39.5469 52.5938 37.2031
Q52.5938 34.6719 50.9531 32.8281
Q49.3125 31 46.7812 31
Q45.1719 31 44.0938 32.0312
Q43.0156 33.0625 43.0156 34.625
Q43.0156 36.7188 44.4531 38.2969
Q45.9062 39.8906 47.9062 40.1875
Q46.0938 41.6094 42.9219 41.6094
Q39.7031 41.6094 37.3281 38.625
Q34.9688 35.6406 33.9844 31.9844
L29.5938 14.3125
Q28.5156 10.2969 28.5156 7.71875
Q28.5156 5.17188 29.9531 3.34375
Q31.3906 1.51562 33.7969 1.51562
Q38.4844 1.51562 42.1562 5.64062
Q45.8438 9.76562 47.0156 14.7031
Q47.2188 15.2812 47.7969 15.2812
L49.0312 15.2812
Q49.4219 15.2812 49.6562 15.0156
Q49.9062 14.75 49.9062 14.4062
Q49.9062 14.3125 49.8125 14.1094
Q48.3906 8.15625 43.8438 3.51562
Q39.3125 -1.125 33.5938 -1.125
Q29.9375 -1.125 26.9844 0.84375
Q24.0312 2.82812 22.7969 6.20312
Q21.2344 3.26562 18.4688 1.0625
Q15.7188 -1.125 12.5938 -1.125
Q10.4531 -1.125 8.17188 -0.359375
Q5.90625 0.390625 4.48438 1.95312
Q3.07812 3.51562 3.07812 5.90625
Q3.07812 8.25 4.70312 10.1719
Q6.34375 12.1094 8.79688 12.1094
Q10.4531 12.1094 11.5781 11.1094
Q12.7031 10.1094 12.7031 8.5
Q12.7031 6.39062 11.2969 4.82812
Q9.90625 3.26562 7.8125 2.875" id="Cmmi10-78"/>
      <path d="
M9.28125 0
L9.28125 3.51562
Q21.7812 3.51562 21.7812 6.6875
L21.7812 59.1875
Q16.6094 56.6875 8.6875 56.6875
L8.6875 60.2031
Q20.9531 60.2031 27.2031 66.6094
L28.6094 66.6094
Q28.9531 66.6094 29.2656 66.3281
Q29.5938 66.0625 29.5938 65.7188
L29.5938 6.6875
Q29.5938 3.51562 42.0938 3.51562
L42.0938 0
z
" id="Cmr10-31"/>
     </defs>
     <g style="fill:#008000;" transform="translate(459.215 211.206875)rotate(-90.0)scale(0.2 -0.2)">
      <use xlink:href="#Cmsy10-6a"/>
      <use transform="translate(27.685546875 0.0)" xlink:href="#Cmsy10-6a"/>
      <use transform="translate(55.37109375 0.0)" xlink:href="#Cmmi10-78"/>
      <use transform="translate(112.451171875 0.0)" xlink:href="#Cmsy10-6a"/>
      <use transform="translate(140.13671875 0.0)" xlink:href="#Cmsy10-6a"/>
      <use transform="translate(167.822265625 -25.509375)scale(0.7)" xlink:href="#Cmr10-31"/>
     </g>
    </g>
   </g>
   <g id="mpl_toolkits.axisartist.axis_artist_2">
    <g>
     <use style="fill:none;stroke:#000000;stroke-width:0.5;" x="477.8075" xlink:href="#m2d49bb8ccc" y="362.206875"/>
     <use style="fill:none;stroke:#000000;stroke-width:0.5;" x="477.8075" xlink:href="#m2d49bb8ccc" y="362.206875"/>
    </g>
    <g>
     <use style="fill:none;stroke:#000000;stroke-width:0.5;" x="477.8075" xlink:href="#m2d49bb8ccc" y="275.806875"/>
     <use style="fill:none;stroke:#000000;stroke-width:0.5;" x="477.8075" xlink:href="#m2d49bb8ccc" y="275.806875"/>
    </g>
    <g>
     <use style="fill:none;stroke:#000000;stroke-width:0.5;" x="477.8075" xlink:href="#m2d49bb8ccc" y="189.406875"/>
     <use style="fill:none;stroke:#000000;stroke-width:0.5;" x="477.8075" xlink:href="#m2d49bb8ccc" y="189.406875"/>
    </g>
    <g>
     <use style="fill:none;stroke:#000000;stroke-width:0.5;" x="477.8075" xlink:href="#m2d49bb8ccc" y="103.006875"/>
     <use style="fill:none;stroke:#000000;stroke-width:0.5;" x="477.8075" xlink:href="#m2d49bb8ccc" y="103.006875"/>
    </g>
    <g>
     <use style="fill:none;stroke:#000000;stroke-width:0.5;" x="477.8075" xlink:href="#m2d49bb8ccc" y="16.606875"/>
     <use style="fill:none;stroke:#000000;stroke-width:0.5;" x="477.8075" xlink:href="#m2d49bb8ccc" y="16.606875"/>
    </g>
    <g id="text_7">
     <!-- 0.0 -->
     <g transform="translate(481.8075 365.518125)scale(0.12 -0.12)">
      <use xlink:href="#DejaVuSans-30"/>
      <use x="63.623046875" xlink:href="#DejaVuSans-2e"/>
      <use x="95.41015625" xlink:href="#DejaVuSans-30"/>
     </g>
    </g>
    <g id="text_8">
     <!-- 0.5 -->
     <g transform="translate(481.8075 279.118125)scale(0.12 -0.12)">
      <use xlink:href="#DejaVuSans-30"/>
      <use x="63.623046875" xlink:href="#DejaVuSans-2e"/>
      <use x="95.41015625" xlink:href="#DejaVuSans-35"/>
     </g>
    </g>
    <g id="text_9">
     <!-- 1.0 -->
     <g transform="translate(481.8075 192.718125)scale(0.12 -0.12)">
      <use xlink:href="#DejaVuSans-31"/>
      <use x="63.623046875" xlink:href="#DejaVuSans-2e"/>
      <use x="95.41015625" xlink:href="#DejaVuSans-30"/>
     </g>
    </g>
    <g id="text_10">
     <!-- 1.5 -->
     <g transform="translate(481.8075 106.318125)scale(0.12 -0.12)">
      <use xlink:href="#DejaVuSans-31"/>
      <use x="63.623046875" xlink:href="#DejaVuSans-2e"/>
      <use x="95.41015625" xlink:href="#DejaVuSans-35"/>
     </g>
    </g>
    <g id="text_11">
     <!-- 2.0 -->
     <g transform="translate(481.8075 19.918125)scale(0.12 -0.12)">
      <use xlink:href="#DejaVuSans-32"/>
      <use x="63.623046875" xlink:href="#DejaVuSans-2e"/>
      <use x="95.41015625" xlink:href="#DejaVuSans-30"/>
     </g>
    </g>
    <g id="line2d_4">
     <path d="
M477.808 362.207
L477.808 16.6069" style="fill:none;stroke:#000000;stroke-linecap:square;"/>
    </g>
    <g id="text_12">
     <!-- $\||x\||_2$ -->
     <defs>
      <path d="
M4.98438 0
L4.98438 2.6875
Q4.98438 2.9375 5.17188 3.21875
L20.7031 20.4062
Q24.2188 24.2188 26.4062 26.7969
Q28.6094 29.3906 30.75 32.7656
Q32.9062 36.1406 34.1562 39.625
Q35.4062 43.1094 35.4062 47.0156
Q35.4062 51.125 33.8906 54.8594
Q32.375 58.5938 29.375 60.8438
Q26.375 63.0938 22.125 63.0938
Q17.7812 63.0938 14.3125 60.4688
Q10.8438 57.8594 9.42188 53.7188
Q9.8125 53.8125 10.5 53.8125
Q12.75 53.8125 14.3281 52.2969
Q15.9219 50.7812 15.9219 48.3906
Q15.9219 46.0938 14.3281 44.5
Q12.75 42.9219 10.5 42.9219
Q8.15625 42.9219 6.5625 44.5469
Q4.98438 46.1875 4.98438 48.3906
Q4.98438 52.1562 6.39062 55.4375
Q7.8125 58.7344 10.4688 61.2969
Q13.1406 63.875 16.4844 65.2344
Q19.8281 66.6094 23.5781 66.6094
Q29.2969 66.6094 34.2188 64.1875
Q39.1562 61.7656 42.0312 57.3438
Q44.9219 52.9375 44.9219 47.0156
Q44.9219 42.6719 43.0156 38.7656
Q41.1094 34.8594 38.125 31.6562
Q35.1562 28.4688 30.5156 24.4062
Q25.875 20.3594 24.4219 19
L13.0938 8.10938
L22.7031 8.10938
Q29.7812 8.10938 34.5469 8.21875
Q39.3125 8.34375 39.5938 8.59375
Q40.7656 9.85938 42 17.8281
L44.9219 17.8281
L42.0938 0
z
" id="Cmr10-32"/>
     </defs>
     <g style="fill:#ff0000;" transform="translate(519.303125 211.206875)rotate(-90.0)scale(0.2 -0.2)">
      <use xlink:href="#Cmsy10-6a"/>
      <use transform="translate(27.685546875 0.0)" xlink:href="#Cmsy10-6a"/>
      <use transform="translate(55.37109375 0.0)" xlink:href="#Cmmi10-78"/>
      <use transform="translate(112.451171875 0.0)" xlink:href="#Cmsy10-6a"/>
      <use transform="translate(140.13671875 0.0)" xlink:href="#Cmsy10-6a"/>
      <use transform="translate(167.822265625 -25.509375)scale(0.7)" xlink:href="#Cmr10-32"/>
     </g>
    </g>
   </g>
   <g id="mpl_toolkits.axisartist.axis_artist_3">
    <defs>
     <path d="
M0 0
L-7.34788e-16 4" id="m5df003cd05" style="stroke:#000000;stroke-width:0.5;"/>
    </defs>
    <g>
     <use style="fill:none;stroke:#000000;stroke-width:0.5;" x="57.8075" xlink:href="#m5df003cd05" y="16.606875"/>
     <use style="fill:none;stroke:#000000;stroke-width:0.5;" x="57.8075" xlink:href="#m5df003cd05" y="16.606875"/>
    </g>
    <g>
     <use style="fill:none;stroke:#000000;stroke-width:0.5;" x="147.8075" xlink:href="#m5df003cd05" y="16.606875"/>
     <use style="fill:none;stroke:#000000;stroke-width:0.5;" x="147.8075" xlink:href="#m5df003cd05" y="16.606875"/>
    </g>
    <g>
     <use style="fill:none;stroke:#000000;stroke-width:0.5;" x="237.8075" xlink:href="#m5df003cd05" y="16.606875"/>
     <use style="fill:none;stroke:#000000;stroke-width:0.5;" x="237.8075" xlink:href="#m5df003cd05" y="16.606875"/>
    </g>
    <g>
     <use style="fill:none;stroke:#000000;stroke-width:0.5;" x="327.8075" xlink:href="#m5df003cd05" y="16.606875"/>
     <use style="fill:none;stroke:#000000;stroke-width:0.5;" x="327.8075" xlink:href="#m5df003cd05" y="16.606875"/>
    </g>
    <g>
     <use style="fill:none;stroke:#000000;stroke-width:0.5;" x="417.8075" xlink:href="#m5df003cd05" y="16.606875"/>
     <use style="fill:none;stroke:#000000;stroke-width:0.5;" x="417.8075" xlink:href="#m5df003cd05" y="16.606875"/>
    </g>
    <g id="line2d_5">
     <path d="
M57.8075 16.6069
L417.808 16.6069" style="fill:none;stroke:#000000;stroke-linecap:square;"/>
    </g>
   </g>
   <g id="mpl_toolkits.axisartist.axis_artist_4">
    <defs>
     <path d="
M0 0
L4 0" id="m70fcf722ea" style="stroke:#000000;stroke-width:0.5;"/>
    </defs>
    <g>
     <use style="fill:none;stroke:#000000;stroke-width:0.5;" x="57.8075" xlink:href="#m70fcf722ea" y="362.206875"/>
     <use style="fill:none;stroke:#000000;stroke-width:0.5;" x="57.8075" xlink:href="#m70fcf722ea" y="362.206875"/>
    </g>
    <g>
     <use style="fill:none;stroke:#000000;stroke-width:0.5;" x="57.8075" xlink:href="#m70fcf722ea" y="293.086875"/>
     <use style="fill:none;stroke:#000000;stroke-width:0.5;" x="57.8075" xlink:href="#m70fcf722ea" y="293.086875"/>
    </g>
    <g>
     <use style="fill:none;stroke:#000000;stroke-width:0.5;" x="57.8075" xlink:href="#m70fcf722ea" y="223.966875"/>
     <use style="fill:none;stroke:#000000;stroke-width:0.5;" x="57.8075" xlink:href="#m70fcf722ea" y="223.966875"/>
    </g>
    <g>
     <use style="fill:none;stroke:#000000;stroke-width:0.5;" x="57.8075" xlink:href="#m70fcf722ea" y="154.846875"/>
     <use style="fill:none;stroke:#000000;stroke-width:0.5;" x="57.8075" xlink:href="#m70fcf722ea" y="154.846875"/>
    </g>
    <g>
     <use style="fill:none;stroke:#000000;stroke-width:0.5;" x="57.8075" xlink:href="#m70fcf722ea" y="85.726875"/>
     <use style="fill:none;stroke:#000000;stroke-width:0.5;" x="57.8075" xlink:href="#m70fcf722ea" y="85.726875"/>
    </g>
    <g>
     <use style="fill:none;stroke:#000000;stroke-width:0.5;" x="57.8075" xlink:href="#m70fcf722ea" y="16.606875"/>
     <use style="fill:none;stroke:#000000;stroke-width:0.5;" x="57.8075" xlink:href="#m70fcf722ea" y="16.606875"/>
    </g>
    <g id="text_13">
     <!-- 1.0 -->
     <g transform="translate(36.83875 365.518125)scale(0.12 -0.12)">
      <use xlink:href="#DejaVuSans-31"/>
      <use x="63.623046875" xlink:href="#DejaVuSans-2e"/>
      <use x="95.41015625" xlink:href="#DejaVuSans-30"/>
     </g>
    </g>
    <g id="text_14">
     <!-- 1.5 -->
     <g transform="translate(37.09 296.398125)scale(0.12 -0.12)">
      <use xlink:href="#DejaVuSans-31"/>
      <use x="63.623046875" xlink:href="#DejaVuSans-2e"/>
      <use x="95.41015625" xlink:href="#DejaVuSans-35"/>
     </g>
    </g>
    <g id="text_15">
     <!-- 2.0 -->
     <g transform="translate(36.4 227.278125)scale(0.12 -0.12)">
      <use xlink:href="#DejaVuSans-32"/>
      <use x="63.623046875" xlink:href="#DejaVuSans-2e"/>
      <use x="95.41015625" xlink:href="#DejaVuSans-30"/>
     </g>
    </g>
    <g id="text_16">
     <!-- 2.5 -->
     <g transform="translate(36.65125 158.158125)scale(0.12 -0.12)">
      <use xlink:href="#DejaVuSans-32"/>
      <use x="63.623046875" xlink:href="#DejaVuSans-2e"/>
      <use x="95.41015625" xlink:href="#DejaVuSans-35"/>
     </g>
    </g>
    <g id="text_17">
     <!-- 3.0 -->
     <g transform="translate(36.435625 89.038125)scale(0.12 -0.12)">
      <use xlink:href="#DejaVuSans-33"/>
      <use x="63.623046875" xlink:href="#DejaVuSans-2e"/>
      <use x="95.41015625" xlink:href="#DejaVuSans-30"/>
     </g>
    </g>
    <g id="text_18">
     <!-- 3.5 -->
     <g transform="translate(36.686875 19.918125)scale(0.12 -0.12)">
      <use xlink:href="#DejaVuSans-33"/>
      <use x="63.623046875" xlink:href="#DejaVuSans-2e"/>
      <use x="95.41015625" xlink:href="#DejaVuSans-35"/>
     </g>
    </g>
    <g id="line2d_6">
     <path d="
M57.8075 362.207
L57.8075 16.6069" style="fill:none;stroke:#000000;stroke-linecap:square;"/>
    </g>
    <g id="text_19">
     <!-- $\||x\||_0$ -->
     <defs>
      <path d="
M25 -2.20312
Q12.75 -2.20312 8.32812 7.875
Q3.90625 17.9688 3.90625 31.8906
Q3.90625 40.5781 5.48438 48.2344
Q7.07812 55.9062 11.7812 61.25
Q16.5 66.6094 25 66.6094
Q31.5938 66.6094 35.7812 63.375
Q39.9844 60.1562 42.1875 55.0469
Q44.3906 49.9531 45.1875 44.1094
Q46 38.2812 46 31.8906
Q46 23.2969 44.4062 15.7969
Q42.8281 8.29688 38.1875 3.04688
Q33.5469 -2.20312 25 -2.20312
M25 0.390625
Q30.5625 0.390625 33.2969 6.09375
Q36.0312 11.8125 36.6719 18.75
Q37.3125 25.6875 37.3125 33.5
Q37.3125 41.0156 36.6719 47.3594
Q36.0312 53.7188 33.3125 58.8594
Q30.6094 64.0156 25 64.0156
Q19.3438 64.0156 16.6094 58.8281
Q13.875 53.6562 13.2344 47.3281
Q12.5938 41.0156 12.5938 33.5
Q12.5938 27.9375 12.8594 23
Q13.1406 18.0625 14.3125 12.8125
Q15.4844 7.5625 18.0938 3.96875
Q20.7031 0.390625 25 0.390625" id="Cmr10-30"/>
     </defs>
     <g style="fill:#0000ff;" transform="translate(25.8 211.206875)rotate(-90.0)scale(0.2 -0.2)">
      <use xlink:href="#Cmsy10-6a"/>
      <use transform="translate(27.685546875 0.0)" xlink:href="#Cmsy10-6a"/>
      <use transform="translate(55.37109375 0.0)" xlink:href="#Cmmi10-78"/>
      <use transform="translate(112.451171875 0.0)" xlink:href="#Cmsy10-6a"/>
      <use transform="translate(140.13671875 0.0)" xlink:href="#Cmsy10-6a"/>
      <use transform="translate(167.822265625 -25.509375)scale(0.7)" xlink:href="#Cmr10-30"/>
     </g>
    </g>
   </g>
   <g id="mpl_toolkits.axisartist.axis_artist_5">
    <g id="line2d_7">
     <path d="
M417.808 362.207
L417.808 16.6069" style="fill:none;stroke:#000000;stroke-linecap:square;"/>
    </g>
   </g>
   <g id="mpl_toolkits.axisartist.axis_artist_6">
    <defs>
     <path d="
M0 0
L2.44929e-16 -4" id="me26b6abbdb" style="stroke:#000000;stroke-width:0.5;"/>
    </defs>
    <g>
     <use style="fill:none;stroke:#000000;stroke-width:0.5;" x="57.8075" xlink:href="#me26b6abbdb" y="362.206875"/>
     <use style="fill:none;stroke:#000000;stroke-width:0.5;" x="57.8075" xlink:href="#me26b6abbdb" y="362.206875"/>
    </g>
    <g>
     <use style="fill:none;stroke:#000000;stroke-width:0.5;" x="147.8075" xlink:href="#me26b6abbdb" y="362.206875"/>
     <use style="fill:none;stroke:#000000;stroke-width:0.5;" x="147.8075" xlink:href="#me26b6abbdb" y="362.206875"/>
    </g>
    <g>
     <use style="fill:none;stroke:#000000;stroke-width:0.5;" x="237.8075" xlink:href="#me26b6abbdb" y="362.206875"/>
     <use style="fill:none;stroke:#000000;stroke-width:0.5;" x="237.8075" xlink:href="#me26b6abbdb" y="362.206875"/>
    </g>
    <g>
     <use style="fill:none;stroke:#000000;stroke-width:0.5;" x="327.8075" xlink:href="#me26b6abbdb" y="362.206875"/>
     <use style="fill:none;stroke:#000000;stroke-width:0.5;" x="327.8075" xlink:href="#me26b6abbdb" y="362.206875"/>
    </g>
    <g>
     <use style="fill:none;stroke:#000000;stroke-width:0.5;" x="417.8075" xlink:href="#me26b6abbdb" y="362.206875"/>
     <use style="fill:none;stroke:#000000;stroke-width:0.5;" x="417.8075" xlink:href="#me26b6abbdb" y="362.206875"/>
    </g>
    <g id="text_20">
     <!-- −1.0 -->
     <defs>
      <path d="
M10.5938 35.5
L73.1875 35.5
L73.1875 27.2031
L10.5938 27.2031
z
" id="DejaVuSans-2212"/>
     </defs>
     <g transform="translate(44.271875 375.113125)scale(0.12 -0.12)">
      <use xlink:href="#DejaVuSans-2212"/>
      <use x="83.7890625" xlink:href="#DejaVuSans-31"/>
      <use x="147.412109375" xlink:href="#DejaVuSans-2e"/>
      <use x="179.19921875" xlink:href="#DejaVuSans-30"/>
     </g>
    </g>
    <g id="text_21">
     <!-- −0.5 -->
     <g transform="translate(134.3975 375.113125)scale(0.12 -0.12)">
      <use xlink:href="#DejaVuSans-2212"/>
      <use x="83.7890625" xlink:href="#DejaVuSans-30"/>
      <use x="147.412109375" xlink:href="#DejaVuSans-2e"/>
      <use x="179.19921875" xlink:href="#DejaVuSans-35"/>
     </g>
    </g>
    <g id="text_22">
     <!-- 0.0 -->
     <g transform="translate(229.0596875 375.113125)scale(0.12 -0.12)">
      <use xlink:href="#DejaVuSans-30"/>
      <use x="63.623046875" xlink:href="#DejaVuSans-2e"/>
      <use x="95.41015625" xlink:href="#DejaVuSans-30"/>
     </g>
    </g>
    <g id="text_23">
     <!-- 0.5 -->
     <g transform="translate(319.1853125 375.113125)scale(0.12 -0.12)">
      <use xlink:href="#DejaVuSans-30"/>
      <use x="63.623046875" xlink:href="#DejaVuSans-2e"/>
      <use x="95.41015625" xlink:href="#DejaVuSans-35"/>
     </g>
    </g>
    <g id="text_24">
     <!-- 1.0 -->
     <g transform="translate(409.323125 375.113125)scale(0.12 -0.12)">
      <use xlink:href="#DejaVuSans-31"/>
      <use x="63.623046875" xlink:href="#DejaVuSans-2e"/>
      <use x="95.41015625" xlink:href="#DejaVuSans-30"/>
     </g>
    </g>
    <g id="line2d_8">
     <path d="
M57.8075 362.207
L417.808 362.207" style="fill:none;stroke:#000000;stroke-linecap:square;"/>
    </g>
    <g id="text_25">
     <!-- Distance from Sparse Sorution ($d$) -->
     <defs>
      <path d="
M8.01562 75.875
L15.8281 75.875
Q23.1406 64.3594 26.7812 53.3125
Q30.4219 42.2812 30.4219 31.3906
Q30.4219 20.4531 26.7812 9.375
Q23.1406 -1.70312 15.8281 -13.1875
L8.01562 -13.1875
Q14.5 -2 17.7031 9.0625
Q20.9062 20.125 20.9062 31.3906
Q20.9062 42.6719 17.7031 53.6562
Q14.5 64.6562 8.01562 75.875" id="DejaVuSans-29"/>
      <path d="
M30.6094 48.3906
Q23.3906 48.3906 19.1875 42.75
Q14.9844 37.1094 14.9844 27.2969
Q14.9844 17.4844 19.1562 11.8438
Q23.3438 6.20312 30.6094 6.20312
Q37.7969 6.20312 41.9844 11.8594
Q46.1875 17.5312 46.1875 27.2969
Q46.1875 37.0156 41.9844 42.7031
Q37.7969 48.3906 30.6094 48.3906
M30.6094 56
Q42.3281 56 49.0156 48.375
Q55.7188 40.7656 55.7188 27.2969
Q55.7188 13.875 49.0156 6.21875
Q42.3281 -1.42188 30.6094 -1.42188
Q18.8438 -1.42188 12.1719 6.21875
Q5.51562 13.875 5.51562 27.2969
Q5.51562 40.7656 12.1719 48.375
Q18.8438 56 30.6094 56" id="DejaVuSans-6f"/>
      <path d="
M8.5 21.5781
L8.5 54.6875
L17.4844 54.6875
L17.4844 21.9219
Q17.4844 14.1562 20.5 10.2656
Q23.5312 6.39062 29.5938 6.39062
Q36.8594 6.39062 41.0781 11.0312
Q45.3125 15.6719 45.3125 23.6875
L45.3125 54.6875
L54.2969 54.6875
L54.2969 0
L45.3125 0
L45.3125 8.40625
Q42.0469 3.42188 37.7188 1
Q33.4062 -1.42188 27.6875 -1.42188
Q18.2656 -1.42188 13.375 4.4375
Q8.5 10.2969 8.5 21.5781
M31.1094 56
z
" id="DejaVuSans-75"/>
      <path d="
M52 44.1875
Q55.375 50.25 60.0625 53.125
Q64.75 56 71.0938 56
Q79.6406 56 84.2812 50.0156
Q88.9219 44.0469 88.9219 33.0156
L88.9219 0
L79.8906 0
L79.8906 32.7188
Q79.8906 40.5781 77.0938 44.375
Q74.3125 48.1875 68.6094 48.1875
Q61.625 48.1875 57.5625 43.5469
Q53.5156 38.9219 53.5156 30.9062
L53.5156 0
L44.4844 0
L44.4844 32.7188
Q44.4844 40.625 41.7031 44.4062
Q38.9219 48.1875 33.1094 48.1875
Q26.2188 48.1875 22.1562 43.5312
Q18.1094 38.875 18.1094 30.9062
L18.1094 0
L9.07812 0
L9.07812 54.6875
L18.1094 54.6875
L18.1094 46.1875
Q21.1875 51.2188 25.4844 53.6094
Q29.7812 56 35.6875 56
Q41.6562 56 45.8281 52.9688
Q50 49.9531 52 44.1875" id="DejaVuSans-6d"/>
      <path d="
M54.8906 33.0156
L54.8906 0
L45.9062 0
L45.9062 32.7188
Q45.9062 40.4844 42.875 44.3281
Q39.8438 48.1875 33.7969 48.1875
Q26.5156 48.1875 22.3125 43.5469
Q18.1094 38.9219 18.1094 30.9062
L18.1094 0
L9.07812 0
L9.07812 54.6875
L18.1094 54.6875
L18.1094 46.1875
Q21.3438 51.125 25.7031 53.5625
Q30.0781 56 35.7969 56
Q45.2188 56 50.0469 50.1719
Q54.8906 44.3438 54.8906 33.0156" id="DejaVuSans-6e"/>
      <path d="
M18.1094 8.20312
L18.1094 -20.7969
L9.07812 -20.7969
L9.07812 54.6875
L18.1094 54.6875
L18.1094 46.3906
Q20.9531 51.2656 25.2656 53.625
Q29.5938 56 35.5938 56
Q45.5625 56 51.7812 48.0938
Q58.0156 40.1875 58.0156 27.2969
Q58.0156 14.4062 51.7812 6.48438
Q45.5625 -1.42188 35.5938 -1.42188
Q29.5938 -1.42188 25.2656 0.953125
Q20.9531 3.32812 18.1094 8.20312
M48.6875 27.2969
Q48.6875 37.2031 44.6094 42.8438
Q40.5312 48.4844 33.4062 48.4844
Q26.2656 48.4844 22.1875 42.8438
Q18.1094 37.2031 18.1094 27.2969
Q18.1094 17.3906 22.1875 11.75
Q26.2656 6.10938 33.4062 6.10938
Q40.5312 6.10938 44.6094 11.75
Q48.6875 17.3906 48.6875 27.2969" id="DejaVuSans-70"/>
      <path d="
M19.6719 64.7969
L19.6719 8.10938
L31.5938 8.10938
Q46.6875 8.10938 53.6875 14.9375
Q60.6875 21.7812 60.6875 36.5312
Q60.6875 51.1719 53.6875 57.9844
Q46.6875 64.7969 31.5938 64.7969
z

M9.8125 72.9062
L30.0781 72.9062
Q51.2656 72.9062 61.1719 64.0938
Q71.0938 55.2812 71.0938 36.5312
Q71.0938 17.6719 61.125 8.82812
Q51.1719 0 30.0781 0
L9.8125 0
z
" id="DejaVuSans-44"/>
      <path d="
M53.5156 70.5156
L53.5156 60.8906
Q47.9062 63.5781 42.9219 64.8906
Q37.9375 66.2188 33.2969 66.2188
Q25.25 66.2188 20.875 63.0938
Q16.5 59.9688 16.5 54.2031
Q16.5 49.3594 19.4062 46.8906
Q22.3125 44.4375 30.4219 42.9219
L36.375 41.7031
Q47.4062 39.5938 52.6562 34.2969
Q57.9062 29 57.9062 20.125
Q57.9062 9.51562 50.7969 4.04688
Q43.7031 -1.42188 29.9844 -1.42188
Q24.8125 -1.42188 18.9688 -0.25
Q13.1406 0.921875 6.89062 3.21875
L6.89062 13.375
Q12.8906 10.0156 18.6562 8.29688
Q24.4219 6.59375 29.9844 6.59375
Q38.4219 6.59375 43.0156 9.90625
Q47.6094 13.2344 47.6094 19.3906
Q47.6094 24.75 44.3125 27.7812
Q41.0156 30.8125 33.5 32.3281
L27.4844 33.5
Q16.4531 35.6875 11.5156 40.375
Q6.59375 45.0625 6.59375 53.4219
Q6.59375 63.0938 13.4062 68.6562
Q20.2188 74.2188 32.1719 74.2188
Q37.3125 74.2188 42.625 73.2812
Q47.9531 72.3594 53.5156 70.5156" id="DejaVuSans-53"/>
      <path id="DejaVuSans-20"/>
      <path d="
M17.3906 -1.125
Q11.0781 -1.125 7.4375 3.64062
Q3.8125 8.40625 3.8125 14.8906
Q3.8125 21.2969 7.125 28.1719
Q10.4531 35.0625 16.0938 39.625
Q21.7344 44.1875 28.2188 44.1875
Q31.1562 44.1875 33.5156 42.5469
Q35.8906 40.9219 37.2031 38.1875
L42.8281 60.5
Q43.2188 62.2031 43.3125 63.1875
Q43.3125 64.7969 36.8125 64.7969
Q35.7969 64.7969 35.7969 66.1094
Q35.8438 66.3594 36.0156 66.9844
Q36.1875 67.625 36.4531 67.9688
Q36.7188 68.3125 37.2031 68.3125
L50.6875 69.3906
Q51.9062 69.3906 51.9062 68.1094
L37.5 10.5938
Q36.8125 8.9375 36.8125 5.8125
Q36.8125 1.51562 39.7031 1.51562
Q42.8281 1.51562 44.4531 5.48438
Q46.0938 9.46875 47.2188 14.7031
Q47.4062 15.2812 48 15.2812
L49.2188 15.2812
Q49.6094 15.2812 49.8438 14.9375
Q50.0938 14.5938 50.0938 14.3125
Q48.3438 7.32812 46.2656 3.09375
Q44.1875 -1.125 39.5 -1.125
Q36.1406 -1.125 33.5469 0.84375
Q30.9531 2.82812 30.3281 6.10938
Q23.875 -1.125 17.3906 -1.125
M17.4844 1.51562
Q21.0938 1.51562 24.4844 4.21875
Q27.875 6.9375 30.3281 10.5938
Q30.4219 10.6875 30.4219 10.9844
L35.8906 33.0156
Q35.2969 36.5312 33.2969 39.0625
Q31.2969 41.6094 27.9844 41.6094
Q24.6094 41.6094 21.7031 38.8438
Q18.7969 36.0781 16.7969 32.3281
Q14.8438 28.3281 13.0625 21.3438
Q11.2812 14.3594 11.2812 10.5
Q11.2812 7.03125 12.7656 4.26562
Q14.2656 1.51562 17.4844 1.51562" id="Cmmi10-64"/>
      <path d="
M9.42188 54.6875
L18.4062 54.6875
L18.4062 0
L9.42188 0
z

M9.42188 75.9844
L18.4062 75.9844
L18.4062 64.5938
L9.42188 64.5938
z
" id="DejaVuSans-69"/>
      <path d="
M37.1094 75.9844
L37.1094 68.5
L28.5156 68.5
Q23.6875 68.5 21.7969 66.5469
Q19.9219 64.5938 19.9219 59.5156
L19.9219 54.6875
L34.7188 54.6875
L34.7188 47.7031
L19.9219 47.7031
L19.9219 0
L10.8906 0
L10.8906 47.7031
L2.29688 47.7031
L2.29688 54.6875
L10.8906 54.6875
L10.8906 58.5
Q10.8906 67.625 15.1406 71.7969
Q19.3906 75.9844 28.6094 75.9844
z
" id="DejaVuSans-66"/>
      <path d="
M18.3125 70.2188
L18.3125 54.6875
L36.8125 54.6875
L36.8125 47.7031
L18.3125 47.7031
L18.3125 18.0156
Q18.3125 11.3281 20.1406 9.42188
Q21.9688 7.51562 27.5938 7.51562
L36.8125 7.51562
L36.8125 0
L27.5938 0
Q17.1875 0 13.2344 3.875
Q9.28125 7.76562 9.28125 18.0156
L9.28125 47.7031
L2.6875 47.7031
L2.6875 54.6875
L9.28125 54.6875
L9.28125 70.2188
z
" id="DejaVuSans-74"/>
      <path d="
M31 75.875
Q24.4688 64.6562 21.2812 53.6562
Q18.1094 42.6719 18.1094 31.3906
Q18.1094 20.125 21.3125 9.0625
Q24.5156 -2 31 -13.1875
L23.1875 -13.1875
Q15.875 -1.70312 12.2344 9.375
Q8.59375 20.4531 8.59375 31.3906
Q8.59375 42.2812 12.2031 53.3125
Q15.8281 64.3594 23.1875 75.875
z
" id="DejaVuSans-28"/>
      <path d="
M56.2031 29.5938
L56.2031 25.2031
L14.8906 25.2031
Q15.4844 15.9219 20.4844 11.0625
Q25.4844 6.20312 34.4219 6.20312
Q39.5938 6.20312 44.4531 7.46875
Q49.3125 8.73438 54.1094 11.2812
L54.1094 2.78125
Q49.2656 0.734375 44.1875 -0.34375
Q39.1094 -1.42188 33.8906 -1.42188
Q20.7969 -1.42188 13.1562 6.1875
Q5.51562 13.8125 5.51562 26.8125
Q5.51562 40.2344 12.7656 48.1094
Q20.0156 56 32.3281 56
Q43.3594 56 49.7812 48.8906
Q56.2031 41.7969 56.2031 29.5938
M47.2188 32.2344
Q47.125 39.5938 43.0938 43.9844
Q39.0625 48.3906 32.4219 48.3906
Q24.9062 48.3906 20.3906 44.1406
Q15.875 39.8906 15.1875 32.1719
z
" id="DejaVuSans-65"/>
      <path d="
M41.1094 46.2969
Q39.5938 47.1719 37.8125 47.5781
Q36.0312 48 33.8906 48
Q26.2656 48 22.1875 43.0469
Q18.1094 38.0938 18.1094 28.8125
L18.1094 0
L9.07812 0
L9.07812 54.6875
L18.1094 54.6875
L18.1094 46.1875
Q20.9531 51.1719 25.4844 53.5781
Q30.0312 56 36.5312 56
Q37.4531 56 38.5781 55.875
Q39.7031 55.7656 41.0625 55.5156
z
" id="DejaVuSans-72"/>
      <path d="
M48.7812 52.5938
L48.7812 44.1875
Q44.9688 46.2969 41.1406 47.3438
Q37.3125 48.3906 33.4062 48.3906
Q24.6562 48.3906 19.8125 42.8438
Q14.9844 37.3125 14.9844 27.2969
Q14.9844 17.2812 19.8125 11.7344
Q24.6562 6.20312 33.4062 6.20312
Q37.3125 6.20312 41.1406 7.25
Q44.9688 8.29688 48.7812 10.4062
L48.7812 2.09375
Q45.0156 0.34375 40.9844 -0.53125
Q36.9688 -1.42188 32.4219 -1.42188
Q20.0625 -1.42188 12.7812 6.34375
Q5.51562 14.1094 5.51562 27.2969
Q5.51562 40.6719 12.8594 48.3281
Q20.2188 56 33.0156 56
Q37.1562 56 41.1094 55.1406
Q45.0625 54.2969 48.7812 52.5938" id="DejaVuSans-63"/>
      <path d="
M44.2812 53.0781
L44.2812 44.5781
Q40.4844 46.5312 36.375 47.5
Q32.2812 48.4844 27.875 48.4844
Q21.1875 48.4844 17.8438 46.4375
Q14.5 44.3906 14.5 40.2812
Q14.5 37.1562 16.8906 35.375
Q19.2812 33.5938 26.5156 31.9844
L29.5938 31.2969
Q39.1562 29.25 43.1875 25.5156
Q47.2188 21.7812 47.2188 15.0938
Q47.2188 7.46875 41.1875 3.01562
Q35.1562 -1.42188 24.6094 -1.42188
Q20.2188 -1.42188 15.4531 -0.5625
Q10.6875 0.296875 5.42188 2
L5.42188 11.2812
Q10.4062 8.6875 15.2344 7.39062
Q20.0625 6.10938 24.8125 6.10938
Q31.1562 6.10938 34.5625 8.28125
Q37.9844 10.4531 37.9844 14.4062
Q37.9844 18.0625 35.5156 20.0156
Q33.0625 21.9688 24.7031 23.7812
L21.5781 24.5156
Q13.2344 26.2656 9.51562 29.9062
Q5.8125 33.5469 5.8125 39.8906
Q5.8125 47.6094 11.2812 51.7969
Q16.75 56 26.8125 56
Q31.7812 56 36.1719 55.2656
Q40.5781 54.5469 44.2812 53.0781" id="DejaVuSans-73"/>
      <path d="
M34.2812 27.4844
Q23.3906 27.4844 19.1875 25
Q14.9844 22.5156 14.9844 16.5
Q14.9844 11.7188 18.1406 8.90625
Q21.2969 6.10938 26.7031 6.10938
Q34.1875 6.10938 38.7031 11.4062
Q43.2188 16.7031 43.2188 25.4844
L43.2188 27.4844
z

M52.2031 31.2031
L52.2031 0
L43.2188 0
L43.2188 8.29688
Q40.1406 3.32812 35.5469 0.953125
Q30.9531 -1.42188 24.3125 -1.42188
Q15.9219 -1.42188 10.9531 3.29688
Q6 8.01562 6 15.9219
Q6 25.1406 12.1719 29.8281
Q18.3594 34.5156 30.6094 34.5156
L43.2188 34.5156
L43.2188 35.4062
Q43.2188 41.6094 39.1406 45
Q35.0625 48.3906 27.6875 48.3906
Q23 48.3906 18.5469 47.2656
Q14.1094 46.1406 10.0156 43.8906
L10.0156 52.2031
Q14.9375 54.1094 19.5781 55.0469
Q24.2188 56 28.6094 56
Q40.4844 56 46.3438 49.8438
Q52.2031 43.7031 52.2031 31.2031" id="DejaVuSans-61"/>
     </defs>
     <g transform="translate(136.1675 389.40375)scale(0.12 -0.12)">
      <use transform="translate(0.0 0.015625)" xlink:href="#DejaVuSans-44"/>
      <use transform="translate(77.001953125 0.015625)" xlink:href="#DejaVuSans-69"/>
      <use transform="translate(104.78515625 0.015625)" xlink:href="#DejaVuSans-73"/>
      <use transform="translate(156.884765625 0.015625)" xlink:href="#DejaVuSans-74"/>
      <use transform="translate(196.09375 0.015625)" xlink:href="#DejaVuSans-61"/>
      <use transform="translate(257.373046875 0.015625)" xlink:href="#DejaVuSans-6e"/>
      <use transform="translate(320.751953125 0.015625)" xlink:href="#DejaVuSans-63"/>
      <use transform="translate(375.732421875 0.015625)" xlink:href="#DejaVuSans-65"/>
      <use transform="translate(437.255859375 0.015625)" xlink:href="#DejaVuSans-20"/>
      <use transform="translate(469.04296875 0.015625)" xlink:href="#DejaVuSans-66"/>
      <use transform="translate(504.248046875 0.015625)" xlink:href="#DejaVuSans-72"/>
      <use transform="translate(545.361328125 0.015625)" xlink:href="#DejaVuSans-6f"/>
      <use transform="translate(606.54296875 0.015625)" xlink:href="#DejaVuSans-6d"/>
      <use transform="translate(703.955078125 0.015625)" xlink:href="#DejaVuSans-20"/>
      <use transform="translate(735.7421875 0.015625)" xlink:href="#DejaVuSans-53"/>
      <use transform="translate(799.21875 0.015625)" xlink:href="#DejaVuSans-70"/>
      <use transform="translate(862.6953125 0.015625)" xlink:href="#DejaVuSans-61"/>
      <use transform="translate(923.974609375 0.015625)" xlink:href="#DejaVuSans-72"/>
      <use transform="translate(965.087890625 0.015625)" xlink:href="#DejaVuSans-73"/>
      <use transform="translate(1017.1875 0.015625)" xlink:href="#DejaVuSans-65"/>
      <use transform="translate(1078.7109375 0.015625)" xlink:href="#DejaVuSans-20"/>
      <use transform="translate(1110.49804688 0.015625)" xlink:href="#DejaVuSans-53"/>
      <use transform="translate(1173.97460938 0.015625)" xlink:href="#DejaVuSans-6f"/>
      <use transform="translate(1235.15625 0.015625)" xlink:href="#DejaVuSans-72"/>
      <use transform="translate(1276.26953125 0.015625)" xlink:href="#DejaVuSans-75"/>
      <use transform="translate(1339.6484375 0.015625)" xlink:href="#DejaVuSans-74"/>
      <use transform="translate(1378.85742188 0.015625)" xlink:href="#DejaVuSans-69"/>
      <use transform="translate(1406.640625 0.015625)" xlink:href="#DejaVuSans-6f"/>
      <use transform="translate(1467.82226562 0.015625)" xlink:href="#DejaVuSans-6e"/>
      <use transform="translate(1531.20117188 0.015625)" xlink:href="#DejaVuSans-20"/>
      <use transform="translate(1562.98828125 0.015625)" xlink:href="#DejaVuSans-28"/>
      <use transform="translate(1602.00195312 0.015625)" xlink:href="#Cmmi10-64"/>
      <use transform="translate(1654.00390625 0.015625)" xlink:href="#DejaVuSans-29"/>
     </g>
    </g>
   </g>
   <g id="legend_1">
    <g id="patch_3">
     <path d="
M327.376 94.0721
L410.608 94.0721
L410.608 23.8069
L327.376 23.8069
L327.376 94.0721
z
" style="fill:#ffffff;stroke:#000000;"/>
    </g>
    <g id="line2d_9">
     <path d="
M337.456 35.4686
L357.616 35.4686" style="fill:none;stroke:#0000ff;stroke-linecap:square;"/>
    </g>
    <g id="line2d_10"/>
    <g id="text_26">
     <!-- $\||x\||_0$ -->
     <g transform="translate(373.4555 40.508625)scale(0.144 -0.144)">
      <use xlink:href="#Cmsy10-6a"/>
      <use transform="translate(27.685546875 0.0)" xlink:href="#Cmsy10-6a"/>
      <use transform="translate(55.37109375 0.0)" xlink:href="#Cmmi10-78"/>
      <use transform="translate(112.451171875 0.0)" xlink:href="#Cmsy10-6a"/>
      <use transform="translate(140.13671875 0.0)" xlink:href="#Cmsy10-6a"/>
      <use transform="translate(167.822265625 -25.509375)scale(0.7)" xlink:href="#Cmr10-30"/>
     </g>
    </g>
    <g id="line2d_11">
     <path d="
M337.456 57.6424
L357.616 57.6424" style="fill:none;stroke:#008000;stroke-linecap:square;"/>
    </g>
    <g id="line2d_12"/>
    <g id="text_27">
     <!-- $\||x\||_1$ -->
     <g transform="translate(373.4555 62.682375)scale(0.144 -0.144)">
      <use xlink:href="#Cmsy10-6a"/>
      <use transform="translate(27.685546875 0.0)" xlink:href="#Cmsy10-6a"/>
      <use transform="translate(55.37109375 0.0)" xlink:href="#Cmmi10-78"/>
      <use transform="translate(112.451171875 0.0)" xlink:href="#Cmsy10-6a"/>
      <use transform="translate(140.13671875 0.0)" xlink:href="#Cmsy10-6a"/>
      <use transform="translate(167.822265625 -25.509375)scale(0.7)" xlink:href="#Cmr10-31"/>
     </g>
    </g>
    <g id="line2d_13">
     <path d="
M337.456 79.5281
L357.616 79.5281" style="fill:none;stroke:#ff0000;stroke-linecap:square;"/>
    </g>
    <g id="line2d_14"/>
    <g id="text_28">
     <!-- $\||x\||_2$ -->
     <g transform="translate(373.4555 84.568125)scale(0.144 -0.144)">
      <use xlink:href="#Cmsy10-6a"/>
      <use transform="translate(27.685546875 0.0)" xlink:href="#Cmsy10-6a"/>
      <use transform="translate(55.37109375 0.0)" xlink:href="#Cmmi10-78"/>
      <use transform="translate(112.451171875 0.0)" xlink:href="#Cmsy10-6a"/>
      <use transform="translate(140.13671875 0.0)" xlink:href="#Cmsy10-6a"/>
      <use transform="translate(167.822265625 -25.509375)scale(0.7)" xlink:href="#Cmr10-32"/>
     </g>
    </g>
   </g>
  </g>
 </g>
 <defs>
  <clipPath id="p3adb02ad01">
   <rect height="345.6" width="360.0" x="57.8075" y="16.606875"/>
  </clipPath>
 </defs>
</svg>
