<?xml version="1.0" encoding="utf-8" standalone="no"?>
<!DOCTYPE svg PUBLIC "-//W3C//DTD SVG 1.1//EN"
  "http://www.w3.org/Graphics/SVG/1.1/DTD/svg11.dtd">
<!-- Created with matplotlib (http://matplotlib.org/) -->
<svg height="136pt" version="1.1" viewBox="0 0 471 136" width="471pt" xmlns="http://www.w3.org/2000/svg" xmlns:xlink="http://www.w3.org/1999/xlink">
 <defs>
  <style type="text/css">
*{stroke-linecap:butt;stroke-linejoin:round;}
  </style>
 </defs>
 <g id="figure_1">
  <g id="patch_1">
   <path d="
M0 136.8
L471.939 136.8
L471.939 0
L0 0
z
" style="fill:none;"/>
  </g>
  <g id="axes_1">
   <g id="patch_2">
    <path d="
M10.8 126
L142.094 126
L142.094 10.8
L10.8 10.8
z
" style="fill:none;"/>
   </g>
   <g id="patch_3">
    <path d="
M10.8 79.92
L142.094 79.92" style="fill:none;stroke:#808080;"/>
   </g>
   <g id="patch_4">
    <path d="
M63.3176 126
L63.3176 10.8" style="fill:none;stroke:#808080;"/>
   </g>
   <g id="line2d_1">
    <path clip-path="url(#pe6eb29a86a)" d="
M-15.4588 56.8869
M-1 56.8856
L0.618007 56.8855
L3.83337 56.8852
L7.04874 56.8849
L10.2641 56.8847
L13.4795 56.8844
L16.6948 56.8841
L19.9102 56.8838
L23.1256 56.8835
L26.3409 56.8832
L29.5563 56.883
L32.7717 56.8827
L35.987 56.8824
L39.2024 56.8821
L42.4178 56.8818
L45.6331 56.8816
L48.8485 56.8813
L52.0639 56.881
L55.2792 56.8807
L58.4946 56.8804
L61.71 56.8801
L64.9253 56.8799
L68.1407 56.8796
L71.3561 56.8793
L74.5714 56.879
L77.7868 56.8787
L81.0022 56.8784
L84.2175 56.8782
L87.4329 56.8779
L90.6483 56.8776
L93.8636 56.8773
L97.079 56.877
L100.294 56.8768
L103.51 56.8765
L106.725 56.8762
L109.94 56.8759
L113.156 56.8756
L116.371 56.8753
L119.587 56.8751
L122.802 56.8748
L126.017 56.8745
L129.233 56.8742
L132.448 56.8739
L135.663 56.8737
L138.879 56.8734
L142.094 56.8731" style="fill:none;stroke:#000000;stroke-linecap:square;stroke-width:1.5;"/>
   </g>
   <g id="PathCollection_1">
    <defs>
     <path d="
M0 6.12372
C1.62403 6.12372 3.18176 5.47849 4.33013 4.33013
C5.47849 3.18176 6.12372 1.62403 6.12372 0
C6.12372 -1.62403 5.47849 -3.18176 4.33013 -4.33013
C3.18176 -5.47849 1.62403 -6.12372 0 -6.12372
C-1.62403 -6.12372 -3.18176 -5.47849 -4.33013 -4.33013
C-5.47849 -3.18176 -6.12372 -1.62403 -6.12372 0
C-6.12372 1.62403 -5.47849 3.18176 -4.33013 4.33013
C-3.18176 5.47849 -1.62403 6.12372 0 6.12372
z
" id="C0_0_b6e9a3c12a"/>
    </defs>
    <g clip-path="url(#pe6eb29a86a)">
     <use style="fill:#ff0000;stroke:#ff0000;" x="37.0588235294" xlink:href="#C0_0_b6e9a3c12a" y="56.882304"/>
    </g>
   </g>
   <g id="PathCollection_2">
    <defs>
     <path d="
M0 6.12372
C1.62403 6.12372 3.18176 5.47849 4.33013 4.33013
C5.47849 3.18176 6.12372 1.62403 6.12372 0
C6.12372 -1.62403 5.47849 -3.18176 4.33013 -4.33013
C3.18176 -5.47849 1.62403 -6.12372 0 -6.12372
C-1.62403 -6.12372 -3.18176 -5.47849 -4.33013 -4.33013
C-5.47849 -3.18176 -6.12372 -1.62403 -6.12372 0
C-6.12372 1.62403 -5.47849 3.18176 -4.33013 4.33013
C-3.18176 5.47849 -1.62403 6.12372 0 6.12372
z
" id="C1_0_b6e9a3c12a"/>
    </defs>
    <g clip-path="url(#pe6eb29a86a)">
     <use style="fill:#0000ff;stroke:#0000ff;" x="63.3176470588" xlink:href="#C1_0_b6e9a3c12a" y="56.88"/>
    </g>
   </g>
   <g id="PathCollection_3">
    <defs>
     <path d="
M0 6.12372
C1.62403 6.12372 3.18176 5.47849 4.33013 4.33013
C5.47849 3.18176 6.12372 1.62403 6.12372 0
C6.12372 -1.62403 5.47849 -3.18176 4.33013 -4.33013
C3.18176 -5.47849 1.62403 -6.12372 0 -6.12372
C-1.62403 -6.12372 -3.18176 -5.47849 -4.33013 -4.33013
C-5.47849 -3.18176 -6.12372 -1.62403 -6.12372 0
C-6.12372 1.62403 -5.47849 3.18176 -4.33013 4.33013
C-3.18176 5.47849 -1.62403 6.12372 0 6.12372
z
" id="C2_0_b6e9a3c12a"/>
    </defs>
    <g clip-path="url(#pe6eb29a86a)">
     <use style="fill:#008000;stroke:#008000;" x="115.835294118" xlink:href="#C2_0_b6e9a3c12a" y="56.875392"/>
    </g>
   </g>
   <g id="matplotlib.axis_1">
    <g id="xtick_1">
     <g id="line2d_2">
      <defs>
       <path d="
M0 0
L0 -4" id="md7ba1ac726" style="stroke:#808080;stroke-width:0.5;"/>
      </defs>
      <g>
       <use style="fill:#808080;stroke:#808080;stroke-width:0.5;" x="37.0588235294" xlink:href="#md7ba1ac726" y="79.92"/>
      </g>
     </g>
     <g id="text_1">
      <!-- $-1$ -->
      <defs>
       <path d="
M9.28125 0
L9.28125 3.51562
Q21.7812 3.51562 21.7812 6.6875
L21.7812 59.1875
Q16.6094 56.6875 8.6875 56.6875
L8.6875 60.2031
Q20.9531 60.2031 27.2031 66.6094
L28.6094 66.6094
Q28.9531 66.6094 29.2656 66.3281
Q29.5938 66.0625 29.5938 65.7188
L29.5938 6.6875
Q29.5938 3.51562 42.0938 3.51562
L42.0938 0
z
" id="Cmr10-31"/>
       <path d="
M10.2031 23
Q9.375 23 8.82812 23.625
Q8.29688 24.2656 8.29688 25
Q8.29688 25.7344 8.82812 26.3594
Q9.375 27 10.2031 27
L67.5781 27
Q68.3594 27 68.875 26.3594
Q69.3906 25.7344 69.3906 25
Q69.3906 24.2656 68.875 23.625
Q68.3594 23 67.5781 23
z
" id="Cmsy10-a1"/>
      </defs>
      <g style="fill:#808080;" transform="translate(29.3788235294 93.038125)scale(0.12 -0.12)">
       <use transform="translate(0.0 0.390625)" xlink:href="#Cmsy10-a1"/>
       <use transform="translate(77.685546875 0.390625)" xlink:href="#Cmr10-31"/>
      </g>
     </g>
    </g>
    <g id="xtick_2">
     <g id="line2d_3">
      <g>
       <use style="fill:#808080;stroke:#808080;stroke-width:0.5;" x="115.835294118" xlink:href="#md7ba1ac726" y="79.92"/>
      </g>
     </g>
     <g id="text_2">
      <!-- $t=2$ -->
      <defs>
       <path d="
M4.98438 0
L4.98438 2.6875
Q4.98438 2.9375 5.17188 3.21875
L20.7031 20.4062
Q24.2188 24.2188 26.4062 26.7969
Q28.6094 29.3906 30.75 32.7656
Q32.9062 36.1406 34.1562 39.625
Q35.4062 43.1094 35.4062 47.0156
Q35.4062 51.125 33.8906 54.8594
Q32.375 58.5938 29.375 60.8438
Q26.375 63.0938 22.125 63.0938
Q17.7812 63.0938 14.3125 60.4688
Q10.8438 57.8594 9.42188 53.7188
Q9.8125 53.8125 10.5 53.8125
Q12.75 53.8125 14.3281 52.2969
Q15.9219 50.7812 15.9219 48.3906
Q15.9219 46.0938 14.3281 44.5
Q12.75 42.9219 10.5 42.9219
Q8.15625 42.9219 6.5625 44.5469
Q4.98438 46.1875 4.98438 48.3906
Q4.98438 52.1562 6.39062 55.4375
Q7.8125 58.7344 10.4688 61.2969
Q13.1406 63.875 16.4844 65.2344
Q19.8281 66.6094 23.5781 66.6094
Q29.2969 66.6094 34.2188 64.1875
Q39.1562 61.7656 42.0312 57.3438
Q44.9219 52.9375 44.9219 47.0156
Q44.9219 42.6719 43.0156 38.7656
Q41.1094 34.8594 38.125 31.6562
Q35.1562 28.4688 30.5156 24.4062
Q25.875 20.3594 24.4219 19
L13.0938 8.10938
L22.7031 8.10938
Q29.7812 8.10938 34.5469 8.21875
Q39.3125 8.34375 39.5938 8.59375
Q40.7656 9.85938 42 17.8281
L44.9219 17.8281
L42.0938 0
z
" id="Cmr10-32"/>
       <path d="
M6.20312 8.10938
Q6.20312 9.57812 6.5 10.8906
L13.7188 39.5938
L3.21875 39.5938
Q2.20312 39.5938 2.20312 40.9219
Q2.59375 43.1094 3.51562 43.1094
L14.5938 43.1094
L18.6094 59.4219
Q19 60.75 20.1719 61.6719
Q21.3438 62.5938 22.7969 62.5938
Q24.0781 62.5938 24.9219 61.8281
Q25.7812 61.0781 25.7812 59.8125
Q25.7812 59.5156 25.75 59.3438
Q25.7344 59.1875 25.6875 58.9844
L21.6875 43.1094
L31.9844 43.1094
Q33.0156 43.1094 33.0156 41.7969
Q32.9531 41.5469 32.8125 40.9531
Q32.6719 40.375 32.4219 39.9844
Q32.1719 39.5938 31.6875 39.5938
L20.7969 39.5938
L13.625 10.6875
Q12.8906 7.85938 12.8906 5.8125
Q12.8906 1.51562 15.8281 1.51562
Q20.2188 1.51562 23.6094 5.64062
Q27 9.76562 28.8125 14.7031
Q29.2031 15.2812 29.5938 15.2812
L30.8125 15.2812
Q31.2031 15.2812 31.4375 15.0156
Q31.6875 14.75 31.6875 14.4062
Q31.6875 14.2031 31.5938 14.1094
Q29.3906 8.0625 25.1875 3.46875
Q21 -1.125 15.5781 -1.125
Q11.625 -1.125 8.90625 1.45312
Q6.20312 4.04688 6.20312 8.10938" id="Cmmi10-74"/>
       <path d="
M7.51562 13.2812
Q6.6875 13.2812 6.14062 13.9062
Q5.60938 14.5469 5.60938 15.2812
Q5.60938 16.1094 6.14062 16.6875
Q6.6875 17.2812 7.51562 17.2812
L70.3125 17.2812
Q71.0469 17.2812 71.5781 16.6875
Q72.125 16.1094 72.125 15.2812
Q72.125 14.5469 71.5781 13.9062
Q71.0469 13.2812 70.3125 13.2812
z

M7.51562 32.7188
Q6.6875 32.7188 6.14062 33.2969
Q5.60938 33.8906 5.60938 34.7188
Q5.60938 35.4531 6.14062 36.0781
Q6.6875 36.7188 7.51562 36.7188
L70.3125 36.7188
Q71.0469 36.7188 71.5781 36.0781
Q72.125 35.4531 72.125 34.7188
Q72.125 33.8906 71.5781 33.2969
Q71.0469 32.7188 70.3125 32.7188
z
" id="Cmr10-3d"/>
      </defs>
      <g style="fill:#808080;" transform="translate(104.555294118 93.038125)scale(0.12 -0.12)">
       <use transform="translate(0.0 0.390625)" xlink:href="#Cmmi10-74"/>
       <use transform="translate(53.642578125 0.390625)" xlink:href="#Cmr10-3d"/>
       <use transform="translate(137.701171875 0.390625)" xlink:href="#Cmr10-32"/>
      </g>
     </g>
    </g>
   </g>
   <g id="matplotlib.axis_2"/>
   <g id="patch_5">
    <path d="
M10.8 10.8
L142.094 10.8" style="fill:none;"/>
   </g>
   <g id="patch_6">
    <path d="
M142.094 126
L142.094 10.8" style="fill:none;"/>
   </g>
   <g id="text_3">
    <!-- $f(t)=x_0$ -->
    <defs>
     <path d="
M31 -24.8125
Q25.4375 -20.4062 21.4062 -14.7188
Q17.3906 -9.03125 14.8125 -2.57812
Q12.25 3.85938 10.9844 10.8906
Q9.71875 17.9219 9.71875 25
Q9.71875 32.1719 10.9844 39.2031
Q12.25 46.2344 14.8594 52.7344
Q17.4844 59.2344 21.5312 64.8906
Q25.5938 70.5625 31 74.8125
Q31 75 31.5 75
L32.4219 75
Q32.7188 75 32.9531 74.7344
Q33.2031 74.4688 33.2031 74.125
Q33.2031 73.6875 33.0156 73.4844
Q28.125 68.7031 24.875 63.2344
Q21.625 57.7656 19.6406 51.5781
Q17.6719 45.4062 16.7969 38.7812
Q15.9219 32.1719 15.9219 25
Q15.9219 -6.78125 32.9062 -23.2969
Q33.2031 -23.5781 33.2031 -24.125
Q33.2031 -24.3594 32.9375 -24.6719
Q32.6719 -25 32.4219 -25
L31.5 -25
Q31 -25 31 -24.8125" id="Cmr10-28"/>
     <path d="
M6.5 -25
Q5.60938 -25 5.60938 -24.125
Q5.60938 -23.6875 5.8125 -23.4844
Q22.9062 -6.78125 22.9062 25
Q22.9062 56.7812 6 73.2969
Q5.60938 73.5312 5.60938 74.125
Q5.60938 74.4688 5.875 74.7344
Q6.15625 75 6.5 75
L7.42188 75
Q7.71875 75 7.90625 74.8125
Q15.0938 69.1406 19.875 61.0312
Q24.6562 52.9375 26.875 43.75
Q29.1094 34.5781 29.1094 25
Q29.1094 17.9219 27.9062 11.0625
Q26.7031 4.20312 24.0938 -2.45312
Q21.4844 -9.125 17.4844 -14.7656
Q13.4844 -20.4062 7.90625 -24.8125
Q7.71875 -25 7.42188 -25
z
" id="Cmr10-29"/>
     <path d="
M7.8125 2.875
Q9.57812 1.51562 12.7969 1.51562
Q15.9219 1.51562 18.3125 4.51562
Q20.7031 7.51562 21.5781 11.0781
L26.125 28.8125
Q27.2031 33.6406 27.2031 35.4062
Q27.2031 37.8906 25.8125 39.75
Q24.4219 41.6094 21.9219 41.6094
Q18.75 41.6094 15.9688 39.625
Q13.1875 37.6406 11.2812 34.5938
Q9.375 31.5469 8.59375 28.4219
Q8.40625 27.7812 7.8125 27.7812
L6.59375 27.7812
Q5.8125 27.7812 5.8125 28.7188
L5.8125 29
Q6.78125 32.7188 9.125 36.25
Q11.4688 39.7969 14.8594 41.9844
Q18.2656 44.1875 22.125 44.1875
Q25.7812 44.1875 28.7344 42.2344
Q31.6875 40.2812 32.9062 36.9219
Q34.625 39.9844 37.2812 42.0781
Q39.9375 44.1875 43.1094 44.1875
Q45.2656 44.1875 47.5 43.4219
Q49.75 42.6719 51.1719 41.1094
Q52.5938 39.5469 52.5938 37.2031
Q52.5938 34.6719 50.9531 32.8281
Q49.3125 31 46.7812 31
Q45.1719 31 44.0938 32.0312
Q43.0156 33.0625 43.0156 34.625
Q43.0156 36.7188 44.4531 38.2969
Q45.9062 39.8906 47.9062 40.1875
Q46.0938 41.6094 42.9219 41.6094
Q39.7031 41.6094 37.3281 38.625
Q34.9688 35.6406 33.9844 31.9844
L29.5938 14.3125
Q28.5156 10.2969 28.5156 7.71875
Q28.5156 5.17188 29.9531 3.34375
Q31.3906 1.51562 33.7969 1.51562
Q38.4844 1.51562 42.1562 5.64062
Q45.8438 9.76562 47.0156 14.7031
Q47.2188 15.2812 47.7969 15.2812
L49.0312 15.2812
Q49.4219 15.2812 49.6562 15.0156
Q49.9062 14.75 49.9062 14.4062
Q49.9062 14.3125 49.8125 14.1094
Q48.3906 8.15625 43.8438 3.51562
Q39.3125 -1.125 33.5938 -1.125
Q29.9375 -1.125 26.9844 0.84375
Q24.0312 2.82812 22.7969 6.20312
Q21.2344 3.26562 18.4688 1.0625
Q15.7188 -1.125 12.5938 -1.125
Q10.4531 -1.125 8.17188 -0.359375
Q5.90625 0.390625 4.48438 1.95312
Q3.07812 3.51562 3.07812 5.90625
Q3.07812 8.25 4.70312 10.1719
Q6.34375 12.1094 8.79688 12.1094
Q10.4531 12.1094 11.5781 11.1094
Q12.7031 10.1094 12.7031 8.5
Q12.7031 6.39062 11.2969 4.82812
Q9.90625 3.26562 7.8125 2.875" id="Cmmi10-78"/>
     <path d="
M25 -2.20312
Q12.75 -2.20312 8.32812 7.875
Q3.90625 17.9688 3.90625 31.8906
Q3.90625 40.5781 5.48438 48.2344
Q7.07812 55.9062 11.7812 61.25
Q16.5 66.6094 25 66.6094
Q31.5938 66.6094 35.7812 63.375
Q39.9844 60.1562 42.1875 55.0469
Q44.3906 49.9531 45.1875 44.1094
Q46 38.2812 46 31.8906
Q46 23.2969 44.4062 15.7969
Q42.8281 8.29688 38.1875 3.04688
Q33.5469 -2.20312 25 -2.20312
M25 0.390625
Q30.5625 0.390625 33.2969 6.09375
Q36.0312 11.8125 36.6719 18.75
Q37.3125 25.6875 37.3125 33.5
Q37.3125 41.0156 36.6719 47.3594
Q36.0312 53.7188 33.3125 58.8594
Q30.6094 64.0156 25 64.0156
Q19.3438 64.0156 16.6094 58.8281
Q13.875 53.6562 13.2344 47.3281
Q12.5938 41.0156 12.5938 33.5
Q12.5938 27.9375 12.8594 23
Q13.1406 18.0625 14.3125 12.8125
Q15.4844 7.5625 18.0938 3.96875
Q20.7031 0.390625 25 0.390625" id="Cmr10-30"/>
     <path d="
M9.71875 -16.5
Q11.5781 -17.9219 14.2031 -17.9219
Q17.7812 -17.9219 20.0156 -10.0156
Q20.9531 -6.20312 25.0938 15.0938
L29.6875 39.5938
L21.0938 39.5938
Q20.125 39.5938 20.125 40.9219
Q20.5156 43.1094 21.3906 43.1094
L30.3281 43.1094
L31.5 49.6094
Q32.0781 52.6406 32.5625 54.8125
Q33.0625 56.9844 33.625 58.8281
Q34.1875 60.6875 35.2969 62.9844
Q37.0156 66.2656 39.9219 68.3906
Q42.8281 70.5156 46.1875 70.5156
Q48.3906 70.5156 50.4688 69.7031
Q52.5469 68.8906 53.8594 67.2812
Q55.1719 65.6719 55.1719 63.4844
Q55.1719 60.9375 53.4844 59.0469
Q51.8125 57.1719 49.4219 57.1719
Q47.7969 57.1719 46.6562 58.1719
Q45.5156 59.1875 45.5156 60.7969
Q45.5156 62.9844 47 64.625
Q48.4844 66.2656 50.6875 66.5
Q48.8281 67.9219 46.0938 67.9219
Q44.5781 67.9219 43.2344 66.5
Q41.8906 65.0938 41.5 63.4844
Q40.875 60.9375 38.7188 49.7031
L37.5 43.1094
L47.7969 43.1094
Q48.7812 43.1094 48.7812 41.7969
Q48.7344 41.5469 48.5781 40.9375
Q48.4375 40.3281 48.1719 39.9531
Q47.9062 39.5938 47.5156 39.5938
L36.8125 39.5938
L32.1719 15.1875
Q31.2969 9.85938 30.1406 4.35938
Q29 -1.125 26.9219 -6.90625
Q24.8594 -12.7031 21.625 -16.6094
Q18.4062 -20.5156 14.0156 -20.5156
Q10.6406 -20.5156 7.98438 -18.5781
Q5.32812 -16.6562 5.32812 -13.4844
Q5.32812 -10.9375 6.95312 -9.04688
Q8.59375 -7.17188 11.0781 -7.17188
Q12.75 -7.17188 13.8594 -8.17188
Q14.9844 -9.1875 14.9844 -10.7969
Q14.9844 -12.9375 13.3906 -14.7188
Q11.8125 -16.5 9.71875 -16.5" id="Cmmi10-66"/>
    </defs>
    <g style="fill:#808080;" transform="translate(93.9529411765 120.928)scale(0.14 -0.14)">
     <use xlink:href="#Cmmi10-66"/>
     <use transform="translate(48.876953125 0.0)" xlink:href="#Cmr10-28"/>
     <use transform="translate(87.6953125 0.0)" xlink:href="#Cmmi10-74"/>
     <use transform="translate(123.779296875 0.0)" xlink:href="#Cmr10-29"/>
     <use transform="translate(180.15625 0.0)" xlink:href="#Cmr10-3d"/>
     <use transform="translate(264.21484375 0.0)" xlink:href="#Cmmi10-78"/>
     <use transform="translate(321.294921875 -25.509375)scale(0.7)" xlink:href="#Cmr10-30"/>
    </g>
   </g>
  </g>
  <g id="axes_2">
   <g id="patch_7">
    <path d="
M168.353 126
L299.647 126
L299.647 10.8
L168.353 10.8
z
" style="fill:none;"/>
   </g>
   <g id="patch_8">
    <path d="
M168.353 79.92
L299.647 79.92" style="fill:none;stroke:#808080;"/>
   </g>
   <g id="patch_9">
    <path d="
M220.871 126
L220.871 10.8" style="fill:none;stroke:#808080;"/>
   </g>
   <g id="line2d_4">
    <path clip-path="url(#p876f5ef46b)" d="
M142.094 149.04
M154.904 137.8
L154.956 137.755
L158.171 134.934
L161.386 132.113
L164.602 129.291
L167.817 126.47
L171.032 123.649
L174.248 120.828
L177.463 118.007
L180.679 115.185
L183.894 112.364
L187.109 109.543
L190.325 106.722
L193.54 103.9
L196.755 101.079
L199.971 98.258
L203.186 95.4367
L206.401 92.6155
L209.617 89.7943
L212.832 86.9731
L216.048 84.1518
L219.263 81.3306
L222.478 78.5094
L225.694 75.6882
L228.909 72.8669
L232.124 70.0457
L235.34 67.2245
L238.555 64.4033
L241.77 61.582
L244.986 58.7608
L248.201 55.9396
L251.417 53.1184
L254.632 50.2971
L257.847 47.4759
L261.063 44.6547
L264.278 41.8335
L267.493 39.0122
L270.709 36.191
L273.924 33.3698
L277.139 30.5486
L280.355 27.7273
L283.57 24.9061
L286.786 22.0849
L290.001 19.2637
L293.216 16.4424
L296.432 13.6212
L299.647 10.8" style="fill:none;stroke:#000000;stroke-linecap:square;stroke-width:1.5;"/>
   </g>
   <g id="PathCollection_4">
    <defs>
     <path d="
M0 6.12372
C1.62403 6.12372 3.18176 5.47849 4.33013 4.33013
C5.47849 3.18176 6.12372 1.62403 6.12372 0
C6.12372 -1.62403 5.47849 -3.18176 4.33013 -4.33013
C3.18176 -5.47849 1.62403 -6.12372 0 -6.12372
C-1.62403 -6.12372 -3.18176 -5.47849 -4.33013 -4.33013
C-5.47849 -3.18176 -6.12372 -1.62403 -6.12372 0
C-6.12372 1.62403 -5.47849 3.18176 -4.33013 4.33013
C-3.18176 5.47849 -1.62403 6.12372 0 6.12372
z
" id="C3_0_b6e9a3c12a"/>
    </defs>
    <g clip-path="url(#p876f5ef46b)">
     <use style="fill:#ff0000;stroke:#ff0000;" x="194.611764706" xlink:href="#C3_0_b6e9a3c12a" y="102.96"/>
    </g>
   </g>
   <g id="PathCollection_5">
    <defs>
     <path d="
M0 6.12372
C1.62403 6.12372 3.18176 5.47849 4.33013 4.33013
C5.47849 3.18176 6.12372 1.62403 6.12372 0
C6.12372 -1.62403 5.47849 -3.18176 4.33013 -4.33013
C3.18176 -5.47849 1.62403 -6.12372 0 -6.12372
C-1.62403 -6.12372 -3.18176 -5.47849 -4.33013 -4.33013
C-5.47849 -3.18176 -6.12372 -1.62403 -6.12372 0
C-6.12372 1.62403 -5.47849 3.18176 -4.33013 4.33013
C-3.18176 5.47849 -1.62403 6.12372 0 6.12372
z
" id="C4_0_b6e9a3c12a"/>
    </defs>
    <g clip-path="url(#p876f5ef46b)">
     <use style="fill:#0000ff;stroke:#0000ff;" x="220.870588235" xlink:href="#C4_0_b6e9a3c12a" y="79.92"/>
    </g>
   </g>
   <g id="PathCollection_6">
    <defs>
     <path d="
M0 6.12372
C1.62403 6.12372 3.18176 5.47849 4.33013 4.33013
C5.47849 3.18176 6.12372 1.62403 6.12372 0
C6.12372 -1.62403 5.47849 -3.18176 4.33013 -4.33013
C3.18176 -5.47849 1.62403 -6.12372 0 -6.12372
C-1.62403 -6.12372 -3.18176 -5.47849 -4.33013 -4.33013
C-5.47849 -3.18176 -6.12372 -1.62403 -6.12372 0
C-6.12372 1.62403 -5.47849 3.18176 -4.33013 4.33013
C-3.18176 5.47849 -1.62403 6.12372 0 6.12372
z
" id="C5_0_b6e9a3c12a"/>
    </defs>
    <g clip-path="url(#p876f5ef46b)">
     <use style="fill:#008000;stroke:#008000;" x="273.388235294" xlink:href="#C5_0_b6e9a3c12a" y="33.84"/>
    </g>
   </g>
   <g id="matplotlib.axis_3">
    <g id="xtick_3">
     <g id="line2d_5">
      <g>
       <use style="fill:#808080;stroke:#808080;stroke-width:0.5;" x="194.611764706" xlink:href="#md7ba1ac726" y="79.92"/>
      </g>
     </g>
     <g id="text_4">
      <!-- $-1$ -->
      <g style="fill:#808080;" transform="translate(186.931764706 93.038125)scale(0.12 -0.12)">
       <use transform="translate(0.0 0.390625)" xlink:href="#Cmsy10-a1"/>
       <use transform="translate(77.685546875 0.390625)" xlink:href="#Cmr10-31"/>
      </g>
     </g>
    </g>
    <g id="xtick_4">
     <g id="line2d_6">
      <g>
       <use style="fill:#808080;stroke:#808080;stroke-width:0.5;" x="273.388235294" xlink:href="#md7ba1ac726" y="79.92"/>
      </g>
     </g>
     <g id="text_5">
      <!-- $t=2$ -->
      <g style="fill:#808080;" transform="translate(262.108235294 93.038125)scale(0.12 -0.12)">
       <use transform="translate(0.0 0.390625)" xlink:href="#Cmmi10-74"/>
       <use transform="translate(53.642578125 0.390625)" xlink:href="#Cmr10-3d"/>
       <use transform="translate(137.701171875 0.390625)" xlink:href="#Cmr10-32"/>
      </g>
     </g>
    </g>
   </g>
   <g id="matplotlib.axis_4"/>
   <g id="patch_10">
    <path d="
M168.353 10.8
L299.647 10.8" style="fill:none;"/>
   </g>
   <g id="patch_11">
    <path d="
M299.647 126
L299.647 10.8" style="fill:none;"/>
   </g>
   <g id="text_6">
    <!-- $f(t)=x_1 t$ -->
    <g style="fill:#808080;" transform="translate(246.465882353 121.208)scale(0.14 -0.14)">
     <use xlink:href="#Cmmi10-66"/>
     <use transform="translate(48.876953125 0.0)" xlink:href="#Cmr10-28"/>
     <use transform="translate(87.6953125 0.0)" xlink:href="#Cmmi10-74"/>
     <use transform="translate(123.779296875 0.0)" xlink:href="#Cmr10-29"/>
     <use transform="translate(180.15625 0.0)" xlink:href="#Cmr10-3d"/>
     <use transform="translate(264.21484375 0.0)" xlink:href="#Cmmi10-78"/>
     <use transform="translate(321.294921875 -25.509375)scale(0.7)" xlink:href="#Cmr10-31"/>
     <use transform="translate(371.294921875 0.0)" xlink:href="#Cmmi10-74"/>
    </g>
   </g>
  </g>
  <g id="axes_3">
   <g id="patch_12">
    <path d="
M325.906 126
L457.2 126
L457.2 10.8
L325.906 10.8
z
" style="fill:none;"/>
   </g>
   <g id="patch_13">
    <path d="
M325.906 79.92
L457.2 79.92" style="fill:none;stroke:#808080;"/>
   </g>
   <g id="patch_14">
    <path d="
M378.424 126
L378.424 10.8" style="fill:none;stroke:#808080;"/>
   </g>
   <g id="line2d_7">
    <path clip-path="url(#p2ce285ca8c)" d="
M299.647 -23.76
M308.838 -1
L309.293 0.0764681
L312.509 7.33105
L315.724 14.2402
L318.939 20.8038
L322.155 27.022
L325.37 32.8948
L328.585 38.4221
L331.801 43.6039
L335.016 48.4403
L338.231 52.9312
L341.447 57.0767
L344.662 60.8767
L347.878 64.3313
L351.093 67.4404
L354.308 70.204
L357.524 72.6222
L360.739 74.695
L363.954 76.4223
L367.17 77.8041
L370.385 78.8404
L373.6 79.5314
L376.816 79.8768
L380.031 79.8768
L383.247 79.5314
L386.462 78.8404
L389.677 77.8041
L392.893 76.4223
L396.108 74.695
L399.323 72.6222
L402.539 70.204
L405.754 67.4404
L408.97 64.3313
L412.185 60.8767
L415.4 57.0767
L418.616 52.9312
L421.831 48.4403
L425.046 43.6039
L428.262 38.4221
L431.477 32.8948
L434.692 27.022
L437.908 20.8038
L441.123 14.2402
L444.339 7.33105
L447.554 0.0764681
L448.009 -1" style="fill:none;stroke:#000000;stroke-linecap:square;stroke-width:1.5;"/>
   </g>
   <g id="PathCollection_7">
    <defs>
     <path d="
M0 6.12372
C1.62403 6.12372 3.18176 5.47849 4.33013 4.33013
C5.47849 3.18176 6.12372 1.62403 6.12372 0
C6.12372 -1.62403 5.47849 -3.18176 4.33013 -4.33013
C3.18176 -5.47849 1.62403 -6.12372 0 -6.12372
C-1.62403 -6.12372 -3.18176 -5.47849 -4.33013 -4.33013
C-5.47849 -3.18176 -6.12372 -1.62403 -6.12372 0
C-6.12372 1.62403 -5.47849 3.18176 -4.33013 4.33013
C-3.18176 5.47849 -1.62403 6.12372 0 6.12372
z
" id="C6_0_b6e9a3c12a"/>
    </defs>
    <g clip-path="url(#p2ce285ca8c)">
     <use style="fill:#ff0000;stroke:#ff0000;" x="352.164705882" xlink:href="#C6_0_b6e9a3c12a" y="68.4"/>
    </g>
   </g>
   <g id="PathCollection_8">
    <defs>
     <path d="
M0 6.12372
C1.62403 6.12372 3.18176 5.47849 4.33013 4.33013
C5.47849 3.18176 6.12372 1.62403 6.12372 0
C6.12372 -1.62403 5.47849 -3.18176 4.33013 -4.33013
C3.18176 -5.47849 1.62403 -6.12372 0 -6.12372
C-1.62403 -6.12372 -3.18176 -5.47849 -4.33013 -4.33013
C-5.47849 -3.18176 -6.12372 -1.62403 -6.12372 0
C-6.12372 1.62403 -5.47849 3.18176 -4.33013 4.33013
C-3.18176 5.47849 -1.62403 6.12372 0 6.12372
z
" id="C7_0_b6e9a3c12a"/>
    </defs>
    <g clip-path="url(#p2ce285ca8c)">
     <use style="fill:#0000ff;stroke:#0000ff;" x="378.423529412" xlink:href="#C7_0_b6e9a3c12a" y="79.92"/>
    </g>
   </g>
   <g id="PathCollection_9">
    <defs>
     <path d="
M0 6.12372
C1.62403 6.12372 3.18176 5.47849 4.33013 4.33013
C5.47849 3.18176 6.12372 1.62403 6.12372 0
C6.12372 -1.62403 5.47849 -3.18176 4.33013 -4.33013
C3.18176 -5.47849 1.62403 -6.12372 0 -6.12372
C-1.62403 -6.12372 -3.18176 -5.47849 -4.33013 -4.33013
C-5.47849 -3.18176 -6.12372 -1.62403 -6.12372 0
C-6.12372 1.62403 -5.47849 3.18176 -4.33013 4.33013
C-3.18176 5.47849 -1.62403 6.12372 0 6.12372
z
" id="C8_0_b6e9a3c12a"/>
    </defs>
    <g clip-path="url(#p2ce285ca8c)">
     <use style="fill:#008000;stroke:#008000;" x="430.941176471" xlink:href="#C8_0_b6e9a3c12a" y="33.84"/>
    </g>
   </g>
   <g id="matplotlib.axis_5">
    <g id="xtick_5">
     <g id="line2d_8">
      <g>
       <use style="fill:#808080;stroke:#808080;stroke-width:0.5;" x="352.164705882" xlink:href="#md7ba1ac726" y="79.92"/>
      </g>
     </g>
     <g id="text_7">
      <!-- $-1$ -->
      <g style="fill:#808080;" transform="translate(344.484705882 93.038125)scale(0.12 -0.12)">
       <use transform="translate(0.0 0.390625)" xlink:href="#Cmsy10-a1"/>
       <use transform="translate(77.685546875 0.390625)" xlink:href="#Cmr10-31"/>
      </g>
     </g>
    </g>
    <g id="xtick_6">
     <g id="line2d_9">
      <g>
       <use style="fill:#808080;stroke:#808080;stroke-width:0.5;" x="430.941176471" xlink:href="#md7ba1ac726" y="79.92"/>
      </g>
     </g>
     <g id="text_8">
      <!-- $t=2$ -->
      <g style="fill:#808080;" transform="translate(419.661176471 93.038125)scale(0.12 -0.12)">
       <use transform="translate(0.0 0.390625)" xlink:href="#Cmmi10-74"/>
       <use transform="translate(53.642578125 0.390625)" xlink:href="#Cmr10-3d"/>
       <use transform="translate(137.701171875 0.390625)" xlink:href="#Cmr10-32"/>
      </g>
     </g>
    </g>
   </g>
   <g id="matplotlib.axis_6"/>
   <g id="patch_15">
    <path d="
M325.906 10.8
L457.2 10.8" style="fill:none;"/>
   </g>
   <g id="patch_16">
    <path d="
M457.2 126
L457.2 10.8" style="fill:none;"/>
   </g>
   <g id="text_9">
    <!-- $f(t)=x_2 t^2$ -->
    <g style="fill:#808080;" transform="translate(394.638823529 121.208)scale(0.14 -0.14)">
     <use transform="translate(0.0 0.8578125)" xlink:href="#Cmmi10-66"/>
     <use transform="translate(48.876953125 0.8578125)" xlink:href="#Cmr10-28"/>
     <use transform="translate(87.6953125 0.8578125)" xlink:href="#Cmmi10-74"/>
     <use transform="translate(123.779296875 0.8578125)" xlink:href="#Cmr10-29"/>
     <use transform="translate(180.15625 0.8578125)" xlink:href="#Cmr10-3d"/>
     <use transform="translate(264.21484375 0.8578125)" xlink:href="#Cmmi10-78"/>
     <use transform="translate(321.294921875 -24.6515625)scale(0.7)" xlink:href="#Cmr10-32"/>
     <use transform="translate(371.294921875 0.8578125)" xlink:href="#Cmmi10-74"/>
     <use transform="translate(407.37890625 43.3734375)scale(0.7)" xlink:href="#Cmr10-32"/>
    </g>
   </g>
  </g>
 </g>
 <defs>
  <clipPath id="p2ce285ca8c">
   <rect height="115.2" width="131.294117647" x="325.905882353" y="10.8"/>
  </clipPath>
  <clipPath id="p876f5ef46b">
   <rect height="115.2" width="131.294117647" x="168.352941176" y="10.8"/>
  </clipPath>
  <clipPath id="pe6eb29a86a">
   <rect height="115.2" width="131.294117647" x="10.8" y="10.8"/>
  </clipPath>
 </defs>
</svg>
