<?xml version="1.0" encoding="utf-8" standalone="no"?>
<!DOCTYPE svg PUBLIC "-//W3C//DTD SVG 1.1//EN"
  "http://www.w3.org/Graphics/SVG/1.1/DTD/svg11.dtd">
<!-- Created with matplotlib (http://matplotlib.org/) -->
<svg height="375pt" version="1.1" viewBox="0 0 505 375" width="505pt" xmlns="http://www.w3.org/2000/svg" xmlns:xlink="http://www.w3.org/1999/xlink">
 <defs>
  <style type="text/css">
*{stroke-linecap:butt;stroke-linejoin:round;}
  </style>
 </defs>
 <g id="figure_1">
  <g id="patch_1">
   <path d="
M0 375.625
L505.38 375.625
L505.38 0
L0 0
z
" style="fill:none;"/>
  </g>
  <g id="patch_2">
   <path d="
M48.18 364.825
L494.58 364.825
L494.58 19.2251
L48.18 19.2251
z
" style="fill:none;"/>
  </g>
  <g id="pane3d_1">
   <g id="patch_3">
    <path d="
M112.743 251.098
L319.706 203.726
L321.833 41.8149
L104.084 84.3039" style="fill:#f2f2f2;opacity:0.5;stroke:#f2f2f2;"/>
   </g>
  </g>
  <g id="pane3d_2">
   <g id="patch_4">
    <path d="
M319.706 203.726
L447.468 288.46
L456.718 117.946
L321.833 41.8149" style="fill:#e6e6e6;opacity:0.5;stroke:#e6e6e6;"/>
   </g>
  </g>
  <g id="pane3d_3">
   <g id="patch_5">
    <path d="
M112.743 251.098
L229.715 343.631
L447.468 288.46
L319.706 203.726" style="fill:#ececec;opacity:0.5;stroke:#ececec;"/>
   </g>
  </g>
  <g id="axis3d_1">
   <g id="line2d_1">
    <path d="
M112.743 251.098
L229.715 343.631" style="fill:none;stroke:#000000;stroke-linecap:square;stroke-width:0.75;"/>
   </g>
   <g id="text_1">
    <!-- $b_0$ -->
    <defs>
     <path d="
M17.2812 -1.125
Q11.2344 -1.125 7.85938 3.60938
Q4.5 8.34375 4.5 14.7031
Q4.5 15.625 4.95312 18.3281
Q5.42188 21.0469 5.42188 21.6875
L15.0938 60.5
Q15.4844 62.2031 15.5781 63.1875
Q15.5781 64.7969 9.07812 64.7969
Q8.10938 64.7969 8.10938 66.1094
Q8.15625 66.3594 8.32812 66.9844
Q8.5 67.625 8.76562 67.9688
Q9.03125 68.3125 9.51562 68.3125
L23 69.3906
Q24.2188 69.3906 24.2188 68.1094
L16.7969 38.625
Q22.4688 44.1875 28.2188 44.1875
Q32.4688 44.1875 35.5156 41.9375
Q38.5781 39.7031 40.0938 36.0312
Q41.6094 32.375 41.6094 28.2188
Q41.6094 23.3906 39.7188 18.2344
Q37.8438 13.0938 34.5156 8.67188
Q31.2031 4.25 26.75 1.5625
Q22.3125 -1.125 17.2812 -1.125
M17.4844 1.51562
Q20.9062 1.51562 23.875 4.375
Q26.8594 7.23438 28.7188 10.7969
Q30.7188 14.7969 32.4531 21.6562
Q34.1875 28.5156 34.1875 32.625
Q34.1875 36.1875 32.6875 38.8906
Q31.2031 41.6094 27.9844 41.6094
Q24.3594 41.6094 21.0625 38.9375
Q17.7812 36.2812 15.2812 32.625
L12.5 21.2969
Q10.8906 14.9844 10.7969 11.1875
Q10.7969 7.42188 12.4219 4.46875
Q14.0625 1.51562 17.4844 1.51562" id="Cmmi10-62"/>
     <path d="
M25 -2.20312
Q12.75 -2.20312 8.32812 7.875
Q3.90625 17.9688 3.90625 31.8906
Q3.90625 40.5781 5.48438 48.2344
Q7.07812 55.9062 11.7812 61.25
Q16.5 66.6094 25 66.6094
Q31.5938 66.6094 35.7812 63.375
Q39.9844 60.1562 42.1875 55.0469
Q44.3906 49.9531 45.1875 44.1094
Q46 38.2812 46 31.8906
Q46 23.2969 44.4062 15.7969
Q42.8281 8.29688 38.1875 3.04688
Q33.5469 -2.20312 25 -2.20312
M25 0.390625
Q30.5625 0.390625 33.2969 6.09375
Q36.0312 11.8125 36.6719 18.75
Q37.3125 25.6875 37.3125 33.5
Q37.3125 41.0156 36.6719 47.3594
Q36.0312 53.7188 33.3125 58.8594
Q30.6094 64.0156 25 64.0156
Q19.3438 64.0156 16.6094 58.8281
Q13.875 53.6562 13.2344 47.3281
Q12.5938 41.0156 12.5938 33.5
Q12.5938 27.9375 12.8594 23
Q13.1406 18.0625 14.3125 12.8125
Q15.4844 7.5625 18.0938 3.96875
Q20.7031 0.390625 25 0.390625" id="Cmr10-30"/>
    </defs>
    <g transform="translate(133.867914419 326.504083118)scale(0.16 -0.16)">
     <use transform="translate(0.0 0.609375)" xlink:href="#Cmmi10-62"/>
     <use transform="translate(42.919921875 -24.9)scale(0.7)" xlink:href="#Cmr10-30"/>
    </g>
   </g>
   <g id="Line3DCollection_1">
    <defs>
     <path d="
M114.911 -122.813
L322.081 -170.324
L324.331 -332.4" id="C0_0_2648116f72"/>
     <path d="
M132.487 -108.909
L341.331 -157.557
L344.589 -320.966" id="C0_1_6c2a90c6f7"/>
     <path d="
M150.495 -94.6626
L361.034 -144.489
L365.35 -309.248" id="C0_2_a0082e7110"/>
     <path d="
M168.953 -80.0615
L381.207 -131.11
L386.632 -297.237" id="C0_3_59c5143017"/>
     <path d="
M187.875 -65.0921
L401.867 -117.408
L408.454 -284.92" id="C0_4_07229f0a3b"/>
     <path d="
M207.282 -49.7403
L423.031 -103.372
L430.838 -272.286" id="C0_5_4102475bd7"/>
     <path d="
M227.19 -33.9911
L444.719 -88.9884
L453.805 -259.323" id="C0_6_dcc205562e"/>
    </defs>
    <use style="fill:none;stroke:#e6e6e6;" x="0.0" xlink:href="#C0_0_2648116f72" y="375.625056818"/>
    <use style="fill:none;stroke:#e6e6e6;" x="0.0" xlink:href="#C0_1_6c2a90c6f7" y="375.625056818"/>
    <use style="fill:none;stroke:#e6e6e6;" x="0.0" xlink:href="#C0_2_a0082e7110" y="375.625056818"/>
    <use style="fill:none;stroke:#e6e6e6;" x="0.0" xlink:href="#C0_3_59c5143017" y="375.625056818"/>
    <use style="fill:none;stroke:#e6e6e6;" x="0.0" xlink:href="#C0_4_07229f0a3b" y="375.625056818"/>
    <use style="fill:none;stroke:#e6e6e6;" x="0.0" xlink:href="#C0_5_4102475bd7" y="375.625056818"/>
    <use style="fill:none;stroke:#e6e6e6;" x="0.0" xlink:href="#C0_6_dcc205562e" y="375.625056818"/>
   </g>
   <g id="xtick_1">
    <g id="line2d_2">
     <path d="
M116.639 252.416
L111.45 253.606" style="fill:none;stroke:#808080;stroke-linecap:square;"/>
    </g>
    <g id="text_2">
     <!-- −1.5 -->
     <defs>
      <path d="
M12.4062 8.29688
L28.5156 8.29688
L28.5156 63.9219
L10.9844 60.4062
L10.9844 69.3906
L28.4219 72.9062
L38.2812 72.9062
L38.2812 8.29688
L54.3906 8.29688
L54.3906 0
L12.4062 0
z
" id="DejaVuSans-31"/>
      <path d="
M10.6875 12.4062
L21 12.4062
L21 0
L10.6875 0
z
" id="DejaVuSans-2e"/>
      <path d="
M10.7969 72.9062
L49.5156 72.9062
L49.5156 64.5938
L19.8281 64.5938
L19.8281 46.7344
Q21.9688 47.4688 24.1094 47.8281
Q26.2656 48.1875 28.4219 48.1875
Q40.625 48.1875 47.75 41.5
Q54.8906 34.8125 54.8906 23.3906
Q54.8906 11.625 47.5625 5.09375
Q40.2344 -1.42188 26.9062 -1.42188
Q22.3125 -1.42188 17.5469 -0.640625
Q12.7969 0.140625 7.71875 1.70312
L7.71875 11.625
Q12.1094 9.23438 16.7969 8.0625
Q21.4844 6.89062 26.7031 6.89062
Q35.1562 6.89062 40.0781 11.3281
Q45.0156 15.7656 45.0156 23.3906
Q45.0156 31 40.0781 35.4375
Q35.1562 39.8906 26.7031 39.8906
Q22.75 39.8906 18.8125 39.0156
Q14.8906 38.1406 10.7969 36.2812
z
" id="DejaVuSans-35"/>
      <path d="
M10.5938 35.5
L73.1875 35.5
L73.1875 27.2031
L10.5938 27.2031
z
" id="DejaVuSans-2212"/>
     </defs>
     <g style="fill:#808080;" transform="translate(89.8560109937 273.584257791)scale(0.12 -0.12)">
      <use xlink:href="#DejaVuSans-2212"/>
      <use x="83.7890625" xlink:href="#DejaVuSans-31"/>
      <use x="147.412109375" xlink:href="#DejaVuSans-2e"/>
      <use x="179.19921875" xlink:href="#DejaVuSans-35"/>
     </g>
    </g>
   </g>
   <g id="xtick_2">
    <g id="line2d_3">
     <path d="
M134.23 266.31
L128.996 267.529" style="fill:none;stroke:#808080;stroke-linecap:square;"/>
    </g>
    <g id="text_3">
     <!-- −1.0 -->
     <defs>
      <path d="
M31.7812 66.4062
Q24.1719 66.4062 20.3281 58.9062
Q16.5 51.4219 16.5 36.375
Q16.5 21.3906 20.3281 13.8906
Q24.1719 6.39062 31.7812 6.39062
Q39.4531 6.39062 43.2812 13.8906
Q47.125 21.3906 47.125 36.375
Q47.125 51.4219 43.2812 58.9062
Q39.4531 66.4062 31.7812 66.4062
M31.7812 74.2188
Q44.0469 74.2188 50.5156 64.5156
Q56.9844 54.8281 56.9844 36.375
Q56.9844 17.9688 50.5156 8.26562
Q44.0469 -1.42188 31.7812 -1.42188
Q19.5312 -1.42188 13.0625 8.26562
Q6.59375 17.9688 6.59375 36.375
Q6.59375 54.8281 13.0625 64.5156
Q19.5312 74.2188 31.7812 74.2188" id="DejaVuSans-30"/>
     </defs>
     <g style="fill:#808080;" transform="translate(107.158349798 287.624578621)scale(0.12 -0.12)">
      <use xlink:href="#DejaVuSans-2212"/>
      <use x="83.7890625" xlink:href="#DejaVuSans-31"/>
      <use x="147.412109375" xlink:href="#DejaVuSans-2e"/>
      <use x="179.19921875" xlink:href="#DejaVuSans-30"/>
     </g>
    </g>
   </g>
   <g id="xtick_3">
    <g id="line2d_4">
     <path d="
M152.254 280.546
L146.975 281.796" style="fill:none;stroke:#808080;stroke-linecap:square;"/>
    </g>
    <g id="text_4">
     <!-- −0.5 -->
     <g style="fill:#808080;" transform="translate(125.140616098 302.010250728)scale(0.12 -0.12)">
      <use xlink:href="#DejaVuSans-2212"/>
      <use x="83.7890625" xlink:href="#DejaVuSans-30"/>
      <use x="147.412109375" xlink:href="#DejaVuSans-2e"/>
      <use x="179.19921875" xlink:href="#DejaVuSans-35"/>
     </g>
    </g>
   </g>
   <g id="xtick_4">
    <g id="line2d_5">
     <path d="
M170.726 295.137
L165.401 296.418" style="fill:none;stroke:#808080;stroke-linecap:square;"/>
    </g>
    <g id="text_5">
     <!-- 0.0 -->
     <g style="fill:#808080;" transform="translate(148.104135671 316.754174734)scale(0.12 -0.12)">
      <use xlink:href="#DejaVuSans-30"/>
      <use x="63.623046875" xlink:href="#DejaVuSans-2e"/>
      <use x="95.41015625" xlink:href="#DejaVuSans-30"/>
     </g>
    </g>
   </g>
   <g id="xtick_5">
    <g id="line2d_6">
     <path d="
M189.665 310.095
L184.293 311.409" style="fill:none;stroke:#808080;stroke-linecap:square;"/>
    </g>
    <g id="text_6">
     <!-- 0.5 -->
     <g style="fill:#808080;" transform="translate(166.992604424 331.869901903)scale(0.12 -0.12)">
      <use xlink:href="#DejaVuSans-30"/>
      <use x="63.623046875" xlink:href="#DejaVuSans-2e"/>
      <use x="95.41015625" xlink:href="#DejaVuSans-35"/>
     </g>
    </g>
   </g>
   <g id="xtick_6">
    <g id="line2d_7">
     <path d="
M209.087 325.436
L203.668 326.783" style="fill:none;stroke:#808080;stroke-linecap:square;"/>
    </g>
    <g id="text_7">
     <!-- 1.0 -->
     <g style="fill:#808080;" transform="translate(186.372452454 347.371675678)scale(0.12 -0.12)">
      <use xlink:href="#DejaVuSans-31"/>
      <use x="63.623046875" xlink:href="#DejaVuSans-2e"/>
      <use x="95.41015625" xlink:href="#DejaVuSans-30"/>
     </g>
    </g>
   </g>
   <g id="xtick_7">
    <g id="line2d_8">
     <path d="
M229.011 341.174
L223.545 342.556" style="fill:none;stroke:#808080;stroke-linecap:square;"/>
    </g>
    <g id="text_8">
     <!-- 1.5 -->
     <g style="fill:#808080;" transform="translate(206.237899618 363.274476453)scale(0.12 -0.12)">
      <use xlink:href="#DejaVuSans-31"/>
      <use x="63.623046875" xlink:href="#DejaVuSans-2e"/>
      <use x="95.41015625" xlink:href="#DejaVuSans-35"/>
     </g>
    </g>
   </g>
  </g>
  <g id="axis3d_2">
   <g id="line2d_9">
    <path d="
M447.468 288.46
L229.715 343.631" style="fill:none;stroke:#000000;stroke-linecap:square;stroke-width:0.75;"/>
   </g>
   <g id="text_9">
    <!-- $b_1$ -->
    <defs>
     <path d="
M9.28125 0
L9.28125 3.51562
Q21.7812 3.51562 21.7812 6.6875
L21.7812 59.1875
Q16.6094 56.6875 8.6875 56.6875
L8.6875 60.2031
Q20.9531 60.2031 27.2031 66.6094
L28.6094 66.6094
Q28.9531 66.6094 29.2656 66.3281
Q29.5938 66.0625 29.5938 65.7188
L29.5938 6.6875
Q29.5938 3.51562 42.0938 3.51562
L42.0938 0
z
" id="Cmr10-31"/>
    </defs>
    <g transform="translate(350.208958273 352.326145181)scale(0.16 -0.16)">
     <use transform="translate(0.0 0.609375)" xlink:href="#Cmmi10-62"/>
     <use transform="translate(42.919921875 -24.9)scale(0.7)" xlink:href="#Cmr10-31"/>
    </g>
   </g>
   <g id="Line3DCollection_2">
    <defs>
     <path d="
M108.633 -292.209
L117.058 -125.515
L234.27 -33.1477" id="C1_0_e69cde1387"/>
     <path d="
M162.584 -302.736
L168.257 -137.234
L288.267 -46.8289" id="C1_1_cf98d102ae"/>
     <path d="
M215.382 -313.039
L218.416 -148.715
L341.079 -60.2099" id="C1_2_86ece1f1ad"/>
     <path d="
M267.064 -323.123
L267.565 -159.964
L392.746 -73.3006" id="C1_3_c988d9a8c5"/>
     <path d="
M317.664 -332.997
L315.735 -170.99
L443.303 -86.1103" id="C1_4_38b42bdfa3"/>
    </defs>
    <use style="fill:none;stroke:#e6e6e6;" x="0.0" xlink:href="#C1_0_e69cde1387" y="375.625056818"/>
    <use style="fill:none;stroke:#e6e6e6;" x="0.0" xlink:href="#C1_1_cf98d102ae" y="375.625056818"/>
    <use style="fill:none;stroke:#e6e6e6;" x="0.0" xlink:href="#C1_2_86ece1f1ad" y="375.625056818"/>
    <use style="fill:none;stroke:#e6e6e6;" x="0.0" xlink:href="#C1_3_c988d9a8c5" y="375.625056818"/>
    <use style="fill:none;stroke:#e6e6e6;" x="0.0" xlink:href="#C1_4_38b42bdfa3" y="375.625056818"/>
   </g>
   <g id="xtick_8">
    <g id="line2d_10">
     <path d="
M233.257 341.679
L236.299 344.077" style="fill:none;stroke:#808080;stroke-linecap:square;"/>
    </g>
    <g id="text_10">
     <!-- −0.5 -->
     <g style="fill:#808080;" transform="translate(228.096021954 366.516816689)scale(0.12 -0.12)">
      <use xlink:href="#DejaVuSans-2212"/>
      <use x="83.7890625" xlink:href="#DejaVuSans-30"/>
      <use x="147.412109375" xlink:href="#DejaVuSans-2e"/>
      <use x="179.19921875" xlink:href="#DejaVuSans-35"/>
     </g>
    </g>
   </g>
   <g id="xtick_9">
    <g id="line2d_11">
     <path d="
M287.23 328.016
L290.343 330.36" style="fill:none;stroke:#808080;stroke-linecap:square;"/>
    </g>
    <g id="text_11">
     <!-- 0.0 -->
     <g style="fill:#808080;" transform="translate(286.755683305 352.649455317)scale(0.12 -0.12)">
      <use xlink:href="#DejaVuSans-30"/>
      <use x="63.623046875" xlink:href="#DejaVuSans-2e"/>
      <use x="95.41015625" xlink:href="#DejaVuSans-30"/>
     </g>
    </g>
   </g>
   <g id="xtick_10">
    <g id="line2d_12">
     <path d="
M340.021 314.652
L343.2 316.945" style="fill:none;stroke:#808080;stroke-linecap:square;"/>
    </g>
    <g id="text_12">
     <!-- 0.5 -->
     <g style="fill:#808080;" transform="translate(339.692526561 339.086742177)scale(0.12 -0.12)">
      <use xlink:href="#DejaVuSans-30"/>
      <use x="63.623046875" xlink:href="#DejaVuSans-2e"/>
      <use x="95.41015625" xlink:href="#DejaVuSans-35"/>
     </g>
    </g>
   </g>
   <g id="xtick_11">
    <g id="line2d_13">
     <path d="
M391.667 301.577
L394.908 303.821" style="fill:none;stroke:#808080;stroke-linecap:square;"/>
    </g>
    <g id="text_13">
     <!-- 1.0 -->
     <g style="fill:#808080;" transform="translate(391.493967783 325.818747247)scale(0.12 -0.12)">
      <use xlink:href="#DejaVuSans-31"/>
      <use x="63.623046875" xlink:href="#DejaVuSans-2e"/>
      <use x="95.41015625" xlink:href="#DejaVuSans-30"/>
     </g>
    </g>
   </g>
   <g id="xtick_12">
    <g id="line2d_14">
     <path d="
M442.205 288.784
L445.505 290.98" style="fill:none;stroke:#808080;stroke-linecap:square;"/>
    </g>
    <g id="text_14">
     <!-- 1.5 -->
     <g style="fill:#808080;" transform="translate(442.172635663 312.835967422)scale(0.12 -0.12)">
      <use xlink:href="#DejaVuSans-31"/>
      <use x="63.623046875" xlink:href="#DejaVuSans-2e"/>
      <use x="95.41015625" xlink:href="#DejaVuSans-35"/>
     </g>
    </g>
   </g>
  </g>
  <g id="axis3d_3">
   <g id="line2d_15">
    <path d="
M447.468 288.46
L456.718 117.946" style="fill:none;stroke:#000000;stroke-linecap:square;stroke-width:0.75;"/>
   </g>
   <g id="text_15">
    <!-- $b_2$ -->
    <defs>
     <path d="
M4.98438 0
L4.98438 2.6875
Q4.98438 2.9375 5.17188 3.21875
L20.7031 20.4062
Q24.2188 24.2188 26.4062 26.7969
Q28.6094 29.3906 30.75 32.7656
Q32.9062 36.1406 34.1562 39.625
Q35.4062 43.1094 35.4062 47.0156
Q35.4062 51.125 33.8906 54.8594
Q32.375 58.5938 29.375 60.8438
Q26.375 63.0938 22.125 63.0938
Q17.7812 63.0938 14.3125 60.4688
Q10.8438 57.8594 9.42188 53.7188
Q9.8125 53.8125 10.5 53.8125
Q12.75 53.8125 14.3281 52.2969
Q15.9219 50.7812 15.9219 48.3906
Q15.9219 46.0938 14.3281 44.5
Q12.75 42.9219 10.5 42.9219
Q8.15625 42.9219 6.5625 44.5469
Q4.98438 46.1875 4.98438 48.3906
Q4.98438 52.1562 6.39062 55.4375
Q7.8125 58.7344 10.4688 61.2969
Q13.1406 63.875 16.4844 65.2344
Q19.8281 66.6094 23.5781 66.6094
Q29.2969 66.6094 34.2188 64.1875
Q39.1562 61.7656 42.0312 57.3438
Q44.9219 52.9375 44.9219 47.0156
Q44.9219 42.6719 43.0156 38.7656
Q41.1094 34.8594 38.125 31.6562
Q35.1562 28.4688 30.5156 24.4062
Q25.875 20.3594 24.4219 19
L13.0938 8.10938
L22.7031 8.10938
Q29.7812 8.10938 34.5469 8.21875
Q39.3125 8.34375 39.5938 8.59375
Q40.7656 9.85938 42 17.8281
L44.9219 17.8281
L42.0938 0
z
" id="Cmr10-32"/>
    </defs>
    <g transform="translate(490.163636834 213.77601767)scale(0.16 -0.16)">
     <use transform="translate(0.0 0.609375)" xlink:href="#Cmmi10-62"/>
     <use transform="translate(42.919921875 -24.9)scale(0.7)" xlink:href="#Cmr10-32"/>
    </g>
   </g>
   <g id="Line3DCollection_3">
    <defs>
     <path d="
M448.35 -103.421
L319.909 -187.389
L111.916 -140.453" id="C2_0_ce7d68698e"/>
     <path d="
M449.78 -129.783
L320.239 -212.485
L110.576 -166.269" id="C2_1_240e55de24"/>
     <path d="
M451.234 -156.591
L320.574 -237.974
L109.214 -192.507" id="C2_2_76439da6eb"/>
     <path d="
M452.713 -183.854
L320.914 -263.865
L107.829 -219.177" id="C2_3_e3b6a382af"/>
     <path d="
M454.218 -211.586
L321.259 -290.167
L106.422 -246.29" id="C2_4_f8e39b113d"/>
     <path d="
M455.748 -239.797
L321.61 -316.89
L104.991 -273.856" id="C2_5_ed45fa5a11"/>
    </defs>
    <use style="fill:none;stroke:#e6e6e6;" x="0.0" xlink:href="#C2_0_ce7d68698e" y="375.625056818"/>
    <use style="fill:none;stroke:#e6e6e6;" x="0.0" xlink:href="#C2_1_240e55de24" y="375.625056818"/>
    <use style="fill:none;stroke:#e6e6e6;" x="0.0" xlink:href="#C2_2_76439da6eb" y="375.625056818"/>
    <use style="fill:none;stroke:#e6e6e6;" x="0.0" xlink:href="#C2_3_e3b6a382af" y="375.625056818"/>
    <use style="fill:none;stroke:#e6e6e6;" x="0.0" xlink:href="#C2_4_f8e39b113d" y="375.625056818"/>
    <use style="fill:none;stroke:#e6e6e6;" x="0.0" xlink:href="#C2_5_ed45fa5a11" y="375.625056818"/>
   </g>
   <g id="xtick_13">
    <g id="line2d_16">
     <path d="
M447.243 271.481
L450.567 273.654" style="fill:none;stroke:#808080;stroke-linecap:square;"/>
    </g>
    <g id="text_16">
     <!-- 0.0 -->
     <g style="fill:#808080;" transform="translate(459.097293174 283.468173052)scale(0.12 -0.12)">
      <use xlink:href="#DejaVuSans-30"/>
      <use x="63.623046875" xlink:href="#DejaVuSans-2e"/>
      <use x="95.41015625" xlink:href="#DejaVuSans-30"/>
     </g>
    </g>
   </g>
   <g id="xtick_14">
    <g id="line2d_17">
     <path d="
M448.663 245.129
L452.018 247.27" style="fill:none;stroke:#808080;stroke-linecap:square;"/>
    </g>
    <g id="text_17">
     <!-- 0.5 -->
     <g style="fill:#808080;" transform="translate(460.819209546 257.074680132)scale(0.12 -0.12)">
      <use xlink:href="#DejaVuSans-30"/>
      <use x="63.623046875" xlink:href="#DejaVuSans-2e"/>
      <use x="95.41015625" xlink:href="#DejaVuSans-35"/>
     </g>
    </g>
   </g>
   <g id="xtick_15">
    <g id="line2d_18">
     <path d="
M450.107 218.332
L453.493 220.441" style="fill:none;stroke:#808080;stroke-linecap:square;"/>
    </g>
    <g id="text_18">
     <!-- 1.0 -->
     <g style="fill:#808080;" transform="translate(462.58030129 230.234962766)scale(0.12 -0.12)">
      <use xlink:href="#DejaVuSans-31"/>
      <use x="63.623046875" xlink:href="#DejaVuSans-2e"/>
      <use x="95.41015625" xlink:href="#DejaVuSans-30"/>
     </g>
    </g>
   </g>
   <g id="xtick_16">
    <g id="line2d_19">
     <path d="
M451.575 191.08
L454.993 193.155" style="fill:none;stroke:#808080;stroke-linecap:square;"/>
    </g>
    <g id="text_19">
     <!-- 1.5 -->
     <g style="fill:#808080;" transform="translate(464.356883653 202.937608265)scale(0.12 -0.12)">
      <use xlink:href="#DejaVuSans-31"/>
      <use x="63.623046875" xlink:href="#DejaVuSans-2e"/>
      <use x="95.41015625" xlink:href="#DejaVuSans-35"/>
     </g>
    </g>
   </g>
   <g id="xtick_17">
    <g id="line2d_20">
     <path d="
M453.069 163.361
L456.519 165.4" style="fill:none;stroke:#808080;stroke-linecap:square;"/>
    </g>
    <g id="text_20">
     <!-- 2.0 -->
     <defs>
      <path d="
M19.1875 8.29688
L53.6094 8.29688
L53.6094 0
L7.32812 0
L7.32812 8.29688
Q12.9375 14.1094 22.625 23.8906
Q32.3281 33.6875 34.8125 36.5312
Q39.5469 41.8438 41.4219 45.5312
Q43.3125 49.2188 43.3125 52.7812
Q43.3125 58.5938 39.2344 62.25
Q35.1562 65.9219 28.6094 65.9219
Q23.9688 65.9219 18.8125 64.3125
Q13.6719 62.7031 7.8125 59.4219
L7.8125 69.3906
Q13.7656 71.7812 18.9375 73
Q24.125 74.2188 28.4219 74.2188
Q39.75 74.2188 46.4844 68.5469
Q53.2188 62.8906 53.2188 53.4219
Q53.2188 48.9219 51.5312 44.8906
Q49.8594 40.875 45.4062 35.4062
Q44.1875 33.9844 37.6406 27.2188
Q31.1094 20.4531 19.1875 8.29688" id="DejaVuSans-32"/>
     </defs>
     <g style="fill:#808080;" transform="translate(465.691233119 175.170811405)scale(0.12 -0.12)">
      <use xlink:href="#DejaVuSans-32"/>
      <use x="63.623046875" xlink:href="#DejaVuSans-2e"/>
      <use x="95.41015625" xlink:href="#DejaVuSans-30"/>
     </g>
    </g>
   </g>
   <g id="xtick_18">
    <g id="line2d_21">
     <path d="
M454.589 135.161
L458.072 137.163" style="fill:none;stroke:#808080;stroke-linecap:square;"/>
    </g>
    <g id="text_21">
     <!-- 2.5 -->
     <g style="fill:#808080;" transform="translate(467.525338445 146.922357404)scale(0.12 -0.12)">
      <use xlink:href="#DejaVuSans-32"/>
      <use x="63.623046875" xlink:href="#DejaVuSans-2e"/>
      <use x="95.41015625" xlink:href="#DejaVuSans-35"/>
     </g>
    </g>
   </g>
  </g>
  <g id="axes_1">
   <g id="Patch3DCollection_1">
    <defs>
     <path d="
M0 3.16228
C0.838646 3.16228 1.64306 2.82908 2.23607 2.23607
C2.82908 1.64306 3.16228 0.838646 3.16228 0
C3.16228 -0.838646 2.82908 -1.64306 2.23607 -2.23607
C1.64306 -2.82908 0.838646 -3.16228 0 -3.16228
C-0.838646 -3.16228 -1.64306 -2.82908 -2.23607 -2.23607
C-2.82908 -1.64306 -3.16228 -0.838646 -3.16228 0
C-3.16228 0.838646 -2.82908 1.64306 -2.23607 2.23607
C-1.64306 2.82908 -0.838646 3.16228 0 3.16228
z
" id="C3_0_b69519a06d"/>
    </defs>
    <g clip-path="url(#pc25a1a683c)">
     <use style="stroke:#000000;" x="185.108398831" xlink:href="#C3_0_b69519a06d" y="131.714097766"/>
    </g>
   </g>
   <g id="Patch3DCollection_2">
    <defs>
     <path d="
M0 3.16228
C0.838646 3.16228 1.64306 2.82908 2.23607 2.23607
C2.82908 1.64306 3.16228 0.838646 3.16228 0
C3.16228 -0.838646 2.82908 -1.64306 2.23607 -2.23607
C1.64306 -2.82908 0.838646 -3.16228 0 -3.16228
C-0.838646 -3.16228 -1.64306 -2.82908 -2.23607 -2.23607
C-2.82908 -1.64306 -3.16228 -0.838646 -3.16228 0
C-3.16228 0.838646 -2.82908 1.64306 -2.23607 2.23607
C-1.64306 2.82908 -0.838646 3.16228 0 3.16228
z
" id="C4_0_b69519a06d"/>
    </defs>
    <g clip-path="url(#pc25a1a683c)">
     <use style="stroke:#000000;" x="370.805727552" xlink:href="#C4_0_b69519a06d" y="216.415679716"/>
    </g>
   </g>
   <g id="Patch3DCollection_3">
    <defs>
     <path d="
M0 3.16228
C0.838646 3.16228 1.64306 2.82908 2.23607 2.23607
C2.82908 1.64306 3.16228 0.838646 3.16228 0
C3.16228 -0.838646 2.82908 -1.64306 2.23607 -2.23607
C1.64306 -2.82908 0.838646 -3.16228 0 -3.16228
C-0.838646 -3.16228 -1.64306 -2.82908 -2.23607 -2.23607
C-2.82908 -1.64306 -3.16228 -0.838646 -3.16228 0
C-3.16228 0.838646 -2.82908 1.64306 -2.23607 2.23607
C-1.64306 2.82908 -0.838646 3.16228 0 3.16228
z
" id="C5_0_b69519a06d"/>
    </defs>
    <g clip-path="url(#pc25a1a683c)">
     <use style="stroke:#000000;" x="264.316886722" xlink:href="#C5_0_b69519a06d" y="67.9422115536"/>
    </g>
   </g>
   <g id="line2d_22">
    <path clip-path="url(#pc25a1a683c)" d="
M225.688 265.656
L265.203 295.018" style="fill:none;stroke:#ff0000;stroke-dasharray:6.000000,6.000000;stroke-dashoffset:0.0;stroke-width:2;"/>
   </g>
   <g id="line2d_23">
    <path clip-path="url(#pc25a1a683c)" d="
M265.203 295.018
L369.259 269.505" style="fill:none;stroke:#0000ff;stroke-dasharray:6.000000,6.000000;stroke-dashoffset:0.0;stroke-width:2;"/>
   </g>
   <g id="line2d_24">
    <path clip-path="url(#pc25a1a683c)" d="
M369.259 269.505
L370.806 216.416" style="fill:none;stroke:#008000;stroke-dasharray:6.000000,6.000000;stroke-dashoffset:0.0;stroke-width:2;"/>
   </g>
   <g id="line2d_25">
    <path clip-path="url(#pc25a1a683c)" d="
M225.688 265.656
L370.806 216.416" style="fill:none;stroke:#000000;stroke-linecap:square;stroke-width:2;"/>
   </g>
   <g id="line2d_26">
    <path clip-path="url(#pc25a1a683c)" d="
M225.688 265.656
L188.081 237.713" style="fill:none;stroke:#ff0000;stroke-dasharray:6.000000,6.000000;stroke-dashoffset:0.0;stroke-width:2;"/>
   </g>
   <g id="line2d_27">
    <path clip-path="url(#pc25a1a683c)" d="
M188.081 237.713
L188.081 237.713" style="fill:none;stroke:#0000ff;stroke-dasharray:6.000000,6.000000;stroke-dashoffset:0.0;stroke-width:2;"/>
   </g>
   <g id="line2d_28">
    <path clip-path="url(#pc25a1a683c)" d="
M188.081 237.713
L185.108 131.714" style="fill:none;stroke:#008000;stroke-dasharray:6.000000,6.000000;stroke-dashoffset:0.0;stroke-width:2;"/>
   </g>
   <g id="line2d_29">
    <path clip-path="url(#pc25a1a683c)" d="
M225.688 265.656
L185.108 131.714" style="fill:none;stroke:#000000;stroke-linecap:square;stroke-width:2;"/>
   </g>
   <g id="line2d_30">
    <path clip-path="url(#pc25a1a683c)" d="
M225.688 265.656
L265.203 295.018" style="fill:none;stroke:#ff0000;stroke-dasharray:6.000000,6.000000;stroke-dashoffset:0.0;stroke-width:2;"/>
   </g>
   <g id="line2d_31">
    <path clip-path="url(#pc25a1a683c)" d="
M265.203 295.018
L265.203 295.018" style="fill:none;stroke:#0000ff;stroke-dasharray:6.000000,6.000000;stroke-dashoffset:0.0;stroke-width:2;"/>
   </g>
   <g id="line2d_32">
    <path clip-path="url(#pc25a1a683c)" d="
M265.203 295.018
L264.317 67.9422" style="fill:none;stroke:#008000;stroke-dasharray:6.000000,6.000000;stroke-dashoffset:0.0;stroke-width:2;"/>
   </g>
   <g id="line2d_33">
    <path clip-path="url(#pc25a1a683c)" d="
M225.688 265.656
L264.317 67.9422" style="fill:none;stroke:#000000;stroke-linecap:square;stroke-width:2;"/>
   </g>
   <g id="text_22">
    <g id="patch_6">
     <path d="
M269.481 250.492
L325.561 250.492
L325.561 232.072
L269.481 232.072
z
" style="fill:#fcffc9;stroke:#fcffc9;"/>
    </g>
    <!-- $f(t)=x_0$ -->
    <defs>
     <path d="
M31 -24.8125
Q25.4375 -20.4062 21.4062 -14.7188
Q17.3906 -9.03125 14.8125 -2.57812
Q12.25 3.85938 10.9844 10.8906
Q9.71875 17.9219 9.71875 25
Q9.71875 32.1719 10.9844 39.2031
Q12.25 46.2344 14.8594 52.7344
Q17.4844 59.2344 21.5312 64.8906
Q25.5938 70.5625 31 74.8125
Q31 75 31.5 75
L32.4219 75
Q32.7188 75 32.9531 74.7344
Q33.2031 74.4688 33.2031 74.125
Q33.2031 73.6875 33.0156 73.4844
Q28.125 68.7031 24.875 63.2344
Q21.625 57.7656 19.6406 51.5781
Q17.6719 45.4062 16.7969 38.7812
Q15.9219 32.1719 15.9219 25
Q15.9219 -6.78125 32.9062 -23.2969
Q33.2031 -23.5781 33.2031 -24.125
Q33.2031 -24.3594 32.9375 -24.6719
Q32.6719 -25 32.4219 -25
L31.5 -25
Q31 -25 31 -24.8125" id="Cmr10-28"/>
     <path d="
M6.5 -25
Q5.60938 -25 5.60938 -24.125
Q5.60938 -23.6875 5.8125 -23.4844
Q22.9062 -6.78125 22.9062 25
Q22.9062 56.7812 6 73.2969
Q5.60938 73.5312 5.60938 74.125
Q5.60938 74.4688 5.875 74.7344
Q6.15625 75 6.5 75
L7.42188 75
Q7.71875 75 7.90625 74.8125
Q15.0938 69.1406 19.875 61.0312
Q24.6562 52.9375 26.875 43.75
Q29.1094 34.5781 29.1094 25
Q29.1094 17.9219 27.9062 11.0625
Q26.7031 4.20312 24.0938 -2.45312
Q21.4844 -9.125 17.4844 -14.7656
Q13.4844 -20.4062 7.90625 -24.8125
Q7.71875 -25 7.42188 -25
z
" id="Cmr10-29"/>
     <path d="
M9.71875 -16.5
Q11.5781 -17.9219 14.2031 -17.9219
Q17.7812 -17.9219 20.0156 -10.0156
Q20.9531 -6.20312 25.0938 15.0938
L29.6875 39.5938
L21.0938 39.5938
Q20.125 39.5938 20.125 40.9219
Q20.5156 43.1094 21.3906 43.1094
L30.3281 43.1094
L31.5 49.6094
Q32.0781 52.6406 32.5625 54.8125
Q33.0625 56.9844 33.625 58.8281
Q34.1875 60.6875 35.2969 62.9844
Q37.0156 66.2656 39.9219 68.3906
Q42.8281 70.5156 46.1875 70.5156
Q48.3906 70.5156 50.4688 69.7031
Q52.5469 68.8906 53.8594 67.2812
Q55.1719 65.6719 55.1719 63.4844
Q55.1719 60.9375 53.4844 59.0469
Q51.8125 57.1719 49.4219 57.1719
Q47.7969 57.1719 46.6562 58.1719
Q45.5156 59.1875 45.5156 60.7969
Q45.5156 62.9844 47 64.625
Q48.4844 66.2656 50.6875 66.5
Q48.8281 67.9219 46.0938 67.9219
Q44.5781 67.9219 43.2344 66.5
Q41.8906 65.0938 41.5 63.4844
Q40.875 60.9375 38.7188 49.7031
L37.5 43.1094
L47.7969 43.1094
Q48.7812 43.1094 48.7812 41.7969
Q48.7344 41.5469 48.5781 40.9375
Q48.4375 40.3281 48.1719 39.9531
Q47.9062 39.5938 47.5156 39.5938
L36.8125 39.5938
L32.1719 15.1875
Q31.2969 9.85938 30.1406 4.35938
Q29 -1.125 26.9219 -6.90625
Q24.8594 -12.7031 21.625 -16.6094
Q18.4062 -20.5156 14.0156 -20.5156
Q10.6406 -20.5156 7.98438 -18.5781
Q5.32812 -16.6562 5.32812 -13.4844
Q5.32812 -10.9375 6.95312 -9.04688
Q8.59375 -7.17188 11.0781 -7.17188
Q12.75 -7.17188 13.8594 -8.17188
Q14.9844 -9.1875 14.9844 -10.7969
Q14.9844 -12.9375 13.3906 -14.7188
Q11.8125 -16.5 9.71875 -16.5" id="Cmmi10-66"/>
     <path d="
M6.20312 8.10938
Q6.20312 9.57812 6.5 10.8906
L13.7188 39.5938
L3.21875 39.5938
Q2.20312 39.5938 2.20312 40.9219
Q2.59375 43.1094 3.51562 43.1094
L14.5938 43.1094
L18.6094 59.4219
Q19 60.75 20.1719 61.6719
Q21.3438 62.5938 22.7969 62.5938
Q24.0781 62.5938 24.9219 61.8281
Q25.7812 61.0781 25.7812 59.8125
Q25.7812 59.5156 25.75 59.3438
Q25.7344 59.1875 25.6875 58.9844
L21.6875 43.1094
L31.9844 43.1094
Q33.0156 43.1094 33.0156 41.7969
Q32.9531 41.5469 32.8125 40.9531
Q32.6719 40.375 32.4219 39.9844
Q32.1719 39.5938 31.6875 39.5938
L20.7969 39.5938
L13.625 10.6875
Q12.8906 7.85938 12.8906 5.8125
Q12.8906 1.51562 15.8281 1.51562
Q20.2188 1.51562 23.6094 5.64062
Q27 9.76562 28.8125 14.7031
Q29.2031 15.2812 29.5938 15.2812
L30.8125 15.2812
Q31.2031 15.2812 31.4375 15.0156
Q31.6875 14.75 31.6875 14.4062
Q31.6875 14.2031 31.5938 14.1094
Q29.3906 8.0625 25.1875 3.46875
Q21 -1.125 15.5781 -1.125
Q11.625 -1.125 8.90625 1.45312
Q6.20312 4.04688 6.20312 8.10938" id="Cmmi10-74"/>
     <path d="
M7.51562 13.2812
Q6.6875 13.2812 6.14062 13.9062
Q5.60938 14.5469 5.60938 15.2812
Q5.60938 16.1094 6.14062 16.6875
Q6.6875 17.2812 7.51562 17.2812
L70.3125 17.2812
Q71.0469 17.2812 71.5781 16.6875
Q72.125 16.1094 72.125 15.2812
Q72.125 14.5469 71.5781 13.9062
Q71.0469 13.2812 70.3125 13.2812
z

M7.51562 32.7188
Q6.6875 32.7188 6.14062 33.2969
Q5.60938 33.8906 5.60938 34.7188
Q5.60938 35.4531 6.14062 36.0781
Q6.6875 36.7188 7.51562 36.7188
L70.3125 36.7188
Q71.0469 36.7188 71.5781 36.0781
Q72.125 35.4531 72.125 34.7188
Q72.125 33.8906 71.5781 33.2969
Q71.0469 32.7188 70.3125 32.7188
z
" id="Cmr10-3d"/>
     <path d="
M7.8125 2.875
Q9.57812 1.51562 12.7969 1.51562
Q15.9219 1.51562 18.3125 4.51562
Q20.7031 7.51562 21.5781 11.0781
L26.125 28.8125
Q27.2031 33.6406 27.2031 35.4062
Q27.2031 37.8906 25.8125 39.75
Q24.4219 41.6094 21.9219 41.6094
Q18.75 41.6094 15.9688 39.625
Q13.1875 37.6406 11.2812 34.5938
Q9.375 31.5469 8.59375 28.4219
Q8.40625 27.7812 7.8125 27.7812
L6.59375 27.7812
Q5.8125 27.7812 5.8125 28.7188
L5.8125 29
Q6.78125 32.7188 9.125 36.25
Q11.4688 39.7969 14.8594 41.9844
Q18.2656 44.1875 22.125 44.1875
Q25.7812 44.1875 28.7344 42.2344
Q31.6875 40.2812 32.9062 36.9219
Q34.625 39.9844 37.2812 42.0781
Q39.9375 44.1875 43.1094 44.1875
Q45.2656 44.1875 47.5 43.4219
Q49.75 42.6719 51.1719 41.1094
Q52.5938 39.5469 52.5938 37.2031
Q52.5938 34.6719 50.9531 32.8281
Q49.3125 31 46.7812 31
Q45.1719 31 44.0938 32.0312
Q43.0156 33.0625 43.0156 34.625
Q43.0156 36.7188 44.4531 38.2969
Q45.9062 39.8906 47.9062 40.1875
Q46.0938 41.6094 42.9219 41.6094
Q39.7031 41.6094 37.3281 38.625
Q34.9688 35.6406 33.9844 31.9844
L29.5938 14.3125
Q28.5156 10.2969 28.5156 7.71875
Q28.5156 5.17188 29.9531 3.34375
Q31.3906 1.51562 33.7969 1.51562
Q38.4844 1.51562 42.1562 5.64062
Q45.8438 9.76562 47.0156 14.7031
Q47.2188 15.2812 47.7969 15.2812
L49.0312 15.2812
Q49.4219 15.2812 49.6562 15.0156
Q49.9062 14.75 49.9062 14.4062
Q49.9062 14.3125 49.8125 14.1094
Q48.3906 8.15625 43.8438 3.51562
Q39.3125 -1.125 33.5938 -1.125
Q29.9375 -1.125 26.9844 0.84375
Q24.0312 2.82812 22.7969 6.20312
Q21.2344 3.26562 18.4688 1.0625
Q15.7188 -1.125 12.5938 -1.125
Q10.4531 -1.125 8.17188 -0.359375
Q5.90625 0.390625 4.48438 1.95312
Q3.07812 3.51562 3.07812 5.90625
Q3.07812 8.25 4.70312 10.1719
Q6.34375 12.1094 8.79688 12.1094
Q10.4531 12.1094 11.5781 11.1094
Q12.7031 10.1094 12.7031 8.5
Q12.7031 6.39062 11.2969 4.82812
Q9.90625 3.26562 7.8125 2.875" id="Cmmi10-78"/>
    </defs>
    <g transform="translate(271.480540541 244.572422502)scale(0.14 -0.14)">
     <use xlink:href="#Cmmi10-66"/>
     <use transform="translate(48.876953125 0.0)" xlink:href="#Cmr10-28"/>
     <use transform="translate(87.6953125 0.0)" xlink:href="#Cmmi10-74"/>
     <use transform="translate(123.779296875 0.0)" xlink:href="#Cmr10-29"/>
     <use transform="translate(180.15625 0.0)" xlink:href="#Cmr10-3d"/>
     <use transform="translate(264.21484375 0.0)" xlink:href="#Cmmi10-78"/>
     <use transform="translate(321.294921875 -25.509375)scale(0.7)" xlink:href="#Cmr10-30"/>
    </g>
   </g>
   <g id="text_23">
    <g id="patch_7">
     <path d="
M174.922 208.033
L236.042 208.033
L236.042 189.893
L174.922 189.893
z
" style="fill:#fcffc9;stroke:#fcffc9;"/>
    </g>
    <!-- $f(t)=x_1 t$ -->
    <g transform="translate(176.922097194 202.392656602)scale(0.14 -0.14)">
     <use xlink:href="#Cmmi10-66"/>
     <use transform="translate(48.876953125 0.0)" xlink:href="#Cmr10-28"/>
     <use transform="translate(87.6953125 0.0)" xlink:href="#Cmmi10-74"/>
     <use transform="translate(123.779296875 0.0)" xlink:href="#Cmr10-29"/>
     <use transform="translate(180.15625 0.0)" xlink:href="#Cmr10-3d"/>
     <use transform="translate(264.21484375 0.0)" xlink:href="#Cmmi10-78"/>
     <use transform="translate(321.294921875 -25.509375)scale(0.7)" xlink:href="#Cmr10-31"/>
     <use transform="translate(371.294921875 0.0)" xlink:href="#Cmmi10-74"/>
    </g>
   </g>
   <g id="text_24">
    <g id="patch_8">
     <path d="
M208.834 181.619
L279.334 181.619
L279.334 161.379
L208.834 161.379
z
" style="fill:#fcffc9;stroke:#fcffc9;"/>
    </g>
    <!-- $f(t)=x_2 t^2$ -->
    <g transform="translate(210.834146793 175.978591006)scale(0.14 -0.14)">
     <use transform="translate(0.0 0.8578125)" xlink:href="#Cmmi10-66"/>
     <use transform="translate(48.876953125 0.8578125)" xlink:href="#Cmr10-28"/>
     <use transform="translate(87.6953125 0.8578125)" xlink:href="#Cmmi10-74"/>
     <use transform="translate(123.779296875 0.8578125)" xlink:href="#Cmr10-29"/>
     <use transform="translate(180.15625 0.8578125)" xlink:href="#Cmr10-3d"/>
     <use transform="translate(264.21484375 0.8578125)" xlink:href="#Cmmi10-78"/>
     <use transform="translate(321.294921875 -24.6515625)scale(0.7)" xlink:href="#Cmr10-32"/>
     <use transform="translate(371.294921875 0.8578125)" xlink:href="#Cmmi10-74"/>
     <use transform="translate(407.37890625 43.3734375)scale(0.7)" xlink:href="#Cmr10-32"/>
    </g>
   </g>
  </g>
  <g id="axes_2">
   <g id="patch_9">
    <path d="
M300.18 206.425
L444.18 206.425
L444.18 134.425
L300.18 134.425
z
" style="fill:none;"/>
   </g>
   <g id="PathCollection_1">
    <defs>
     <path d="
M0 3.53553
C0.937635 3.53553 1.83699 3.16301 2.5 2.5
C3.16301 1.83699 3.53553 0.937635 3.53553 0
C3.53553 -0.937635 3.16301 -1.83699 2.5 -2.5
C1.83699 -3.16301 0.937635 -3.53553 0 -3.53553
C-0.937635 -3.53553 -1.83699 -3.16301 -2.5 -2.5
C-3.16301 -1.83699 -3.53553 -0.937635 -3.53553 0
C-3.53553 0.937635 -3.16301 1.83699 -2.5 2.5
C-1.83699 3.16301 -0.937635 3.53553 0 3.53553
z
" id="C6_0_44316a752d"/>
    </defs>
    <g clip-path="url(#p4c6d349b67)">
     <use style="fill:#ff0000;stroke:#ff0000;" x="318.18" xlink:href="#C6_0_44316a752d" y="146.425056818"/>
    </g>
   </g>
   <g id="PathCollection_2">
    <defs>
     <path d="
M0 3.53553
C0.937635 3.53553 1.83699 3.16301 2.5 2.5
C3.16301 1.83699 3.53553 0.937635 3.53553 0
C3.53553 -0.937635 3.16301 -1.83699 2.5 -2.5
C1.83699 -3.16301 0.937635 -3.53553 0 -3.53553
C-0.937635 -3.53553 -1.83699 -3.16301 -2.5 -2.5
C-3.16301 -1.83699 -3.53553 -0.937635 -3.53553 0
C-3.53553 0.937635 -3.16301 1.83699 -2.5 2.5
C-1.83699 3.16301 -0.937635 3.53553 0 3.53553
z
" id="C7_0_44316a752d"/>
    </defs>
    <g clip-path="url(#p4c6d349b67)">
     <use style="fill:#0000ff;stroke:#0000ff;" x="354.18" xlink:href="#C7_0_44316a752d" y="146.425056818"/>
    </g>
   </g>
   <g id="PathCollection_3">
    <defs>
     <path d="
M0 3.53553
C0.937635 3.53553 1.83699 3.16301 2.5 2.5
C3.16301 1.83699 3.53553 0.937635 3.53553 0
C3.53553 -0.937635 3.16301 -1.83699 2.5 -2.5
C1.83699 -3.16301 0.937635 -3.53553 0 -3.53553
C-0.937635 -3.53553 -1.83699 -3.16301 -2.5 -2.5
C-3.16301 -1.83699 -3.53553 -0.937635 -3.53553 0
C-3.53553 0.937635 -3.16301 1.83699 -2.5 2.5
C-1.83699 3.16301 -0.937635 3.53553 0 3.53553
z
" id="C8_0_44316a752d"/>
    </defs>
    <g clip-path="url(#p4c6d349b67)">
     <use style="fill:#008000;stroke:#008000;" x="426.18" xlink:href="#C8_0_44316a752d" y="146.425056818"/>
    </g>
   </g>
   <g id="line2d_34">
    <path clip-path="url(#p4c6d349b67)" d="
M318.18 194.425
L318.184 146.425" style="fill:none;stroke:#ff0000;stroke-linecap:square;"/>
   </g>
   <g id="line2d_35">
    <path clip-path="url(#p4c6d349b67)" d="
M354.18 194.425
L354.184 146.425" style="fill:none;stroke:#0000ff;stroke-linecap:square;"/>
   </g>
   <g id="line2d_36">
    <path clip-path="url(#p4c6d349b67)" d="
M426.18 194.425
L426.184 146.425" style="fill:none;stroke:#008000;stroke-linecap:square;"/>
   </g>
   <g id="matplotlib.axis_1"/>
   <g id="matplotlib.axis_2"/>
   <g id="patch_10">
    <path d="
M300.18 134.425
L444.18 134.425" style="fill:none;"/>
   </g>
   <g id="patch_11">
    <path d="
M444.18 206.425
L444.18 134.425" style="fill:none;"/>
   </g>
   <g id="patch_12">
    <path d="
M300.18 194.425
L444.18 194.425" style="fill:none;stroke:#808080;"/>
   </g>
   <g id="patch_13">
    <path d="
M300.18 206.425
L300.18 134.425" style="fill:none;"/>
   </g>
   <g id="text_25">
    <!-- $b_0=1$ -->
    <g style="fill:#ff0000;" transform="translate(303.48 136.945056818)scale(0.12 -0.12)">
     <use transform="translate(0.0 0.609375)" xlink:href="#Cmmi10-62"/>
     <use transform="translate(42.919921875 -24.9)scale(0.7)" xlink:href="#Cmr10-30"/>
     <use transform="translate(110.478515625 0.609375)" xlink:href="#Cmr10-3d"/>
     <use transform="translate(194.537109375 0.609375)" xlink:href="#Cmr10-31"/>
    </g>
   </g>
   <g id="text_26">
    <!-- $b_1=1$ -->
    <g style="fill:#0000ff;" transform="translate(339.48 137.111931818)scale(0.12 -0.12)">
     <use transform="translate(0.0 0.609375)" xlink:href="#Cmmi10-62"/>
     <use transform="translate(42.919921875 -24.9)scale(0.7)" xlink:href="#Cmr10-31"/>
     <use transform="translate(110.478515625 0.609375)" xlink:href="#Cmr10-3d"/>
     <use transform="translate(194.537109375 0.609375)" xlink:href="#Cmr10-31"/>
    </g>
   </g>
   <g id="text_27">
    <!-- $b_2=1$ -->
    <g style="fill:#008000;" transform="translate(411.48 137.111931818)scale(0.12 -0.12)">
     <use transform="translate(0.0 0.609375)" xlink:href="#Cmmi10-62"/>
     <use transform="translate(42.919921875 -24.9)scale(0.7)" xlink:href="#Cmr10-32"/>
     <use transform="translate(110.478515625 0.609375)" xlink:href="#Cmr10-3d"/>
     <use transform="translate(194.537109375 0.609375)" xlink:href="#Cmr10-31"/>
    </g>
   </g>
  </g>
  <g id="axes_3">
   <g id="patch_14">
    <path d="
M12.18 249.625
L156.18 249.625
L156.18 177.625
L12.18 177.625
z
" style="fill:none;"/>
   </g>
   <g id="PathCollection_4">
    <defs>
     <path d="
M0 3.53553
C0.937635 3.53553 1.83699 3.16301 2.5 2.5
C3.16301 1.83699 3.53553 0.937635 3.53553 0
C3.53553 -0.937635 3.16301 -1.83699 2.5 -2.5
C1.83699 -3.16301 0.937635 -3.53553 0 -3.53553
C-0.937635 -3.53553 -1.83699 -3.16301 -2.5 -2.5
C-3.16301 -1.83699 -3.53553 -0.937635 -3.53553 0
C-3.53553 0.937635 -3.16301 1.83699 -2.5 2.5
C-1.83699 3.16301 -0.937635 3.53553 0 3.53553
z
" id="C9_0_44316a752d"/>
    </defs>
    <g clip-path="url(#p9481892d2b)">
     <use style="fill:#ff0000;stroke:#ff0000;" x="30.18" xlink:href="#C9_0_44316a752d" y="244.482199675"/>
    </g>
   </g>
   <g id="PathCollection_5">
    <defs>
     <path d="
M0 3.53553
C0.937635 3.53553 1.83699 3.16301 2.5 2.5
C3.16301 1.83699 3.53553 0.937635 3.53553 0
C3.53553 -0.937635 3.16301 -1.83699 2.5 -2.5
C1.83699 -3.16301 0.937635 -3.53553 0 -3.53553
C-0.937635 -3.53553 -1.83699 -3.16301 -2.5 -2.5
C-3.16301 -1.83699 -3.53553 -0.937635 -3.53553 0
C-3.53553 0.937635 -3.16301 1.83699 -2.5 2.5
C-1.83699 3.16301 -0.937635 3.53553 0 3.53553
z
" id="Ca_0_44316a752d"/>
    </defs>
    <g clip-path="url(#p9481892d2b)">
     <use style="fill:#0000ff;stroke:#0000ff;" x="66.18" xlink:href="#Ca_0_44316a752d" y="223.910771104"/>
    </g>
   </g>
   <g id="PathCollection_6">
    <defs>
     <path d="
M0 3.53553
C0.937635 3.53553 1.83699 3.16301 2.5 2.5
C3.16301 1.83699 3.53553 0.937635 3.53553 0
C3.53553 -0.937635 3.16301 -1.83699 2.5 -2.5
C1.83699 -3.16301 0.937635 -3.53553 0 -3.53553
C-0.937635 -3.53553 -1.83699 -3.16301 -2.5 -2.5
C-3.16301 -1.83699 -3.53553 -0.937635 -3.53553 0
C-3.53553 0.937635 -3.16301 1.83699 -2.5 2.5
C-1.83699 3.16301 -0.937635 3.53553 0 3.53553
z
" id="Cb_0_44316a752d"/>
    </defs>
    <g clip-path="url(#p9481892d2b)">
     <use style="fill:#008000;stroke:#008000;" x="138.18" xlink:href="#Cb_0_44316a752d" y="182.767913961"/>
    </g>
   </g>
   <g id="line2d_37">
    <path clip-path="url(#p9481892d2b)" d="
M30.18 223.911
L30.1836 244.482" style="fill:none;stroke:#ff0000;stroke-linecap:square;"/>
   </g>
   <g id="line2d_38">
    <path clip-path="url(#p9481892d2b)" d="
M66.18 223.911
L66.1836 223.911" style="fill:none;stroke:#0000ff;stroke-linecap:square;"/>
   </g>
   <g id="line2d_39">
    <path clip-path="url(#p9481892d2b)" d="
M138.18 223.911
L138.184 182.768" style="fill:none;stroke:#008000;stroke-linecap:square;"/>
   </g>
   <g id="matplotlib.axis_3"/>
   <g id="matplotlib.axis_4"/>
   <g id="patch_15">
    <path d="
M12.18 177.625
L156.18 177.625" style="fill:none;"/>
   </g>
   <g id="patch_16">
    <path d="
M156.18 249.625
L156.18 177.625" style="fill:none;"/>
   </g>
   <g id="patch_17">
    <path d="
M12.18 223.911
L156.18 223.911" style="fill:none;stroke:#808080;"/>
   </g>
   <g id="patch_18">
    <path d="
M12.18 249.625
L12.18 177.625" style="fill:none;"/>
   </g>
   <g id="text_28">
    <!-- $b_0=-1$ -->
    <defs>
     <path d="
M10.2031 23
Q9.375 23 8.82812 23.625
Q8.29688 24.2656 8.29688 25
Q8.29688 25.7344 8.82812 26.3594
Q9.375 27 10.2031 27
L67.5781 27
Q68.3594 27 68.875 26.3594
Q69.3906 25.7344 69.3906 25
Q69.3906 24.2656 68.875 23.625
Q68.3594 23 67.5781 23
z
" id="Cmsy10-a1"/>
    </defs>
    <g style="fill:#ff0000;" transform="translate(10.8 257.287913961)scale(0.12 -0.12)">
     <use transform="translate(0.0 0.609375)" xlink:href="#Cmmi10-62"/>
     <use transform="translate(42.919921875 -24.9)scale(0.7)" xlink:href="#Cmr10-30"/>
     <use transform="translate(110.478515625 0.609375)" xlink:href="#Cmr10-3d"/>
     <use transform="translate(194.537109375 0.609375)" xlink:href="#Cmsy10-a1"/>
     <use transform="translate(272.22265625 0.609375)" xlink:href="#Cmr10-31"/>
    </g>
   </g>
   <g id="text_29">
    <!-- $b_1=0$ -->
    <g style="fill:#0000ff;" transform="translate(51.48 216.311931818)scale(0.12 -0.12)">
     <use transform="translate(0.0 0.609375)" xlink:href="#Cmmi10-62"/>
     <use transform="translate(42.919921875 -24.9)scale(0.7)" xlink:href="#Cmr10-31"/>
     <use transform="translate(110.478515625 0.609375)" xlink:href="#Cmr10-3d"/>
     <use transform="translate(194.537109375 0.609375)" xlink:href="#Cmr10-30"/>
    </g>
   </g>
   <g id="text_30">
    <!-- $b_2=2$ -->
    <g style="fill:#008000;" transform="translate(123.48 175.169074675)scale(0.12 -0.12)">
     <use transform="translate(0.0 0.609375)" xlink:href="#Cmmi10-62"/>
     <use transform="translate(42.919921875 -24.9)scale(0.7)" xlink:href="#Cmr10-32"/>
     <use transform="translate(110.478515625 0.609375)" xlink:href="#Cmr10-3d"/>
     <use transform="translate(194.537109375 0.609375)" xlink:href="#Cmr10-32"/>
    </g>
   </g>
  </g>
  <g id="axes_4">
   <g id="patch_19">
    <path d="
M112.98 98.4251
L256.98 98.4251
L256.98 26.4251
L112.98 26.4251
z
" style="fill:none;"/>
   </g>
   <g id="PathCollection_7">
    <defs>
     <path d="
M0 3.53553
C0.937635 3.53553 1.83699 3.16301 2.5 2.5
C3.16301 1.83699 3.53553 0.937635 3.53553 0
C3.53553 -0.937635 3.16301 -1.83699 2.5 -2.5
C1.83699 -3.16301 0.937635 -3.53553 0 -3.53553
C-0.937635 -3.53553 -1.83699 -3.16301 -2.5 -2.5
C-3.16301 -1.83699 -3.53553 -0.937635 -3.53553 0
C-3.53553 0.937635 -3.16301 1.83699 -2.5 2.5
C-1.83699 3.16301 -0.937635 3.53553 0 3.53553
z
" id="Cc_0_44316a752d"/>
    </defs>
    <g clip-path="url(#p1fdce0436a)">
     <use style="fill:#ff0000;stroke:#ff0000;" x="130.98" xlink:href="#Cc_0_44316a752d" y="68.9705113636"/>
    </g>
   </g>
   <g id="PathCollection_8">
    <defs>
     <path d="
M0 3.53553
C0.937635 3.53553 1.83699 3.16301 2.5 2.5
C3.16301 1.83699 3.53553 0.937635 3.53553 0
C3.53553 -0.937635 3.16301 -1.83699 2.5 -2.5
C1.83699 -3.16301 0.937635 -3.53553 0 -3.53553
C-0.937635 -3.53553 -1.83699 -3.16301 -2.5 -2.5
C-3.16301 -1.83699 -3.53553 -0.937635 -3.53553 0
C-3.53553 0.937635 -3.16301 1.83699 -2.5 2.5
C-1.83699 3.16301 -0.937635 3.53553 0 3.53553
z
" id="Cd_0_44316a752d"/>
    </defs>
    <g clip-path="url(#p1fdce0436a)">
     <use style="fill:#0000ff;stroke:#0000ff;" x="166.98" xlink:href="#Cd_0_44316a752d" y="82.0614204545"/>
    </g>
   </g>
   <g id="PathCollection_9">
    <defs>
     <path d="
M0 3.53553
C0.937635 3.53553 1.83699 3.16301 2.5 2.5
C3.16301 1.83699 3.53553 0.937635 3.53553 0
C3.53553 -0.937635 3.16301 -1.83699 2.5 -2.5
C1.83699 -3.16301 0.937635 -3.53553 0 -3.53553
C-0.937635 -3.53553 -1.83699 -3.16301 -2.5 -2.5
C-3.16301 -1.83699 -3.53553 -0.937635 -3.53553 0
C-3.53553 0.937635 -3.16301 1.83699 -2.5 2.5
C-1.83699 3.16301 -0.937635 3.53553 0 3.53553
z
" id="Ce_0_44316a752d"/>
    </defs>
    <g clip-path="url(#p1fdce0436a)">
     <use style="fill:#008000;stroke:#008000;" x="238.98" xlink:href="#Ce_0_44316a752d" y="29.6977840909"/>
    </g>
   </g>
   <g id="line2d_40">
    <path clip-path="url(#p1fdce0436a)" d="
M130.98 82.0614
L130.984 68.9705" style="fill:none;stroke:#ff0000;stroke-linecap:square;"/>
   </g>
   <g id="line2d_41">
    <path clip-path="url(#p1fdce0436a)" d="
M166.98 82.0614
L166.984 82.0614" style="fill:none;stroke:#0000ff;stroke-linecap:square;"/>
   </g>
   <g id="line2d_42">
    <path clip-path="url(#p1fdce0436a)" d="
M238.98 82.0614
L238.984 29.6978" style="fill:none;stroke:#008000;stroke-linecap:square;"/>
   </g>
   <g id="matplotlib.axis_5"/>
   <g id="matplotlib.axis_6"/>
   <g id="patch_20">
    <path d="
M112.98 26.4251
L256.98 26.4251" style="fill:none;"/>
   </g>
   <g id="patch_21">
    <path d="
M256.98 98.4251
L256.98 26.4251" style="fill:none;"/>
   </g>
   <g id="patch_22">
    <path d="
M112.98 82.0614
L256.98 82.0614" style="fill:none;stroke:#808080;"/>
   </g>
   <g id="patch_23">
    <path d="
M112.98 98.4251
L112.98 26.4251" style="fill:none;"/>
   </g>
   <g id="text_31">
    <!-- $b_0=1$ -->
    <g style="fill:#ff0000;" transform="translate(116.28 58.3996022727)scale(0.12 -0.12)">
     <use transform="translate(0.0 0.609375)" xlink:href="#Cmmi10-62"/>
     <use transform="translate(42.919921875 -24.9)scale(0.7)" xlink:href="#Cmr10-30"/>
     <use transform="translate(110.478515625 0.609375)" xlink:href="#Cmr10-3d"/>
     <use transform="translate(194.537109375 0.609375)" xlink:href="#Cmr10-31"/>
    </g>
   </g>
   <g id="text_32">
    <!-- $b_1=0$ -->
    <g style="fill:#0000ff;" transform="translate(152.28 71.6573863636)scale(0.12 -0.12)">
     <use transform="translate(0.0 0.609375)" xlink:href="#Cmmi10-62"/>
     <use transform="translate(42.919921875 -24.9)scale(0.7)" xlink:href="#Cmr10-31"/>
     <use transform="translate(110.478515625 0.609375)" xlink:href="#Cmr10-3d"/>
     <use transform="translate(194.537109375 0.609375)" xlink:href="#Cmr10-30"/>
    </g>
   </g>
   <g id="text_33">
    <!-- $b_2=4$ -->
    <defs>
     <path d="
M2.78125 16.5
L2.78125 20.0156
L33.6875 66.1094
Q34.0312 66.6094 34.7188 66.6094
L36.1875 66.6094
Q37.3125 66.6094 37.3125 65.4844
L37.3125 20.0156
L47.125 20.0156
L47.125 16.5
L37.3125 16.5
L37.3125 6.6875
Q37.3125 4.64062 40.2344 4.07812
Q43.1719 3.51562 47.0156 3.51562
L47.0156 0
L19.4844 0
L19.4844 3.51562
Q23.3438 3.51562 26.2656 4.07812
Q29.2031 4.64062 29.2031 6.6875
L29.2031 16.5
z

M6.10938 20.0156
L29.7812 20.0156
L29.7812 55.4219
z
" id="Cmr10-34"/>
    </defs>
    <g style="fill:#008000;" transform="translate(224.28 19.29375)scale(0.12 -0.12)">
     <use transform="translate(0.0 0.609375)" xlink:href="#Cmmi10-62"/>
     <use transform="translate(42.919921875 -24.9)scale(0.7)" xlink:href="#Cmr10-32"/>
     <use transform="translate(110.478515625 0.609375)" xlink:href="#Cmr10-3d"/>
     <use transform="translate(194.537109375 0.609375)" xlink:href="#Cmr10-34"/>
    </g>
   </g>
  </g>
 </g>
 <defs>
  <clipPath id="p4c6d349b67">
   <rect height="72.0" width="144.0" x="300.18" y="134.425056818"/>
  </clipPath>
  <clipPath id="pc25a1a683c">
   <rect height="345.6" width="446.4" x="48.18" y="19.2250568182"/>
  </clipPath>
  <clipPath id="p1fdce0436a">
   <rect height="72.0" width="144.0" x="112.98" y="26.4250568182"/>
  </clipPath>
  <clipPath id="p9481892d2b">
   <rect height="72.0" width="144.0" x="12.18" y="177.625056818"/>
  </clipPath>
 </defs>
</svg>
